<?xml version="1.0" encoding="UTF-8"?>
<svg version="1.1" xmlns="http://www.w3.org/2000/svg" width="2000" height="1560">
<path d="M0 0 C6.41094234 5.05374574 12.40896814 10.5561771 18.3125 16.1875 C19.40691406 17.22003906 19.40691406 17.22003906 20.5234375 18.2734375 C38.14374528 35.33658139 53.61521751 58.16858001 64.3125 80.1875 C64.3125 80.8475 64.3125 81.5075 64.3125 82.1875 C65.446875 81.73375 66.58125 81.28 67.75 80.8125 C81.02095836 75.50411666 98.0006769 74.87028111 111.421875 79.80859375 C124.96590135 86.26946037 132.60055581 96.82704349 138.05859375 110.5390625 C145.04812505 130.87620343 142.62097625 150.10850912 138.25488281 170.69189453 C136.18456929 180.50529269 134.25867841 190.34891428 132.3125 200.1875 C131.98309418 201.8452243 131.98309418 201.8452243 131.64703369 203.53643799 C128.56592029 219.08230088 125.81438019 234.62222398 123.7578125 250.33789062 C123.59023438 251.59666016 123.42265625 252.85542969 123.25 254.15234375 C123.11464844 255.2312085 122.97929688 256.31007324 122.83984375 257.42163086 C122.34256834 260.02979431 121.63700995 261.90430041 120.3125 264.1875 C104.67657667 234.90483886 100.84410669 196.17445244 110.3125 164.1875 C111.51059807 160.52312206 112.78247042 156.88644027 114.0625 153.25 C118.27264484 141.28120669 119.3925742 131.62569707 113.71875 119.7421875 C109.33919776 111.78600093 102.80610651 107.37751881 94.421875 104.03515625 C86.00216531 101.73983338 76.14351655 102.173536 68.3125 106.1875 C52.9082175 115.32756411 48.17219252 133.44794672 43.89160156 149.80566406 C30.3600302 205.4608117 39.27690884 261.95691446 68.44287109 311.09179688 C70.59304789 314.56041149 72.91352476 317.88770474 75.3125 321.1875 C75.99570312 322.14269531 76.67890625 323.09789062 77.3828125 324.08203125 C90.9625502 342.65074068 106.93207114 360.28208614 125.3125 374.1875 C126.60334048 375.19470288 127.8936652 376.20256696 129.18359375 377.2109375 C130.5796773 378.28782336 131.97681099 379.3633492 133.375 380.4375 C134.01195801 380.93362793 134.64891602 381.42975586 135.30517578 381.94091797 C138.89530222 384.65522543 142.27313828 386.64370441 146.41796875 388.4140625 C152.40160485 391.31480412 154.63039235 395.52865671 157.5625 401.3125 C158.10060303 402.31877441 158.63870605 403.32504883 159.19311523 404.36181641 C160.92732011 407.62323154 162.61969988 410.90443562 164.3125 414.1875 C165.48347574 416.40220698 166.65666404 418.61574549 167.83203125 420.828125 C171.39837033 427.57815086 174.8710273 434.37310179 178.3125 441.1875 C179.07578613 442.68990234 179.07578613 442.68990234 179.85449219 444.22265625 C215.18753819 514.19000641 236.86418907 592.22431741 249.875 669.25 C250.00346313 670.00162415 250.13192627 670.75324829 250.26428223 671.52764893 C252.75232793 686.2212709 254.07661223 701.14323994 245.3125 714.1875 C239.93698748 721.23735248 234.26005953 726.25924635 226.3125 730.1875 C225.67957031 730.51492188 225.04664063 730.84234375 224.39453125 731.1796875 C215.3804704 735.21583415 203.58356282 735.40623694 194.3125 732.1875 C182.13219973 727.18832914 174.05215907 721.09627602 167.63671875 709.38671875 C163.48779144 699.36320409 162.06632467 688.5843712 160.24060059 677.95742798 C149.15151893 613.93584701 132.18279239 546.84231079 101.3125 489.1875 C101.1673999 489.96013184 101.0222998 490.73276367 100.87280273 491.52880859 C92.59953834 535.18663465 80.13340847 577.69761662 59.36816406 617.16601562 C58.17023166 619.45992874 57.00322811 621.76847448 55.8359375 624.078125 C40.43842922 654.31205308 21.06151135 682.19207727 -0.6875 708.1875 C-1.63193729 709.35382113 -2.57592039 710.52051014 -3.51953125 711.6875 C-12.6515669 722.8452572 -22.60787274 732.75341458 -37.68261719 734.40625 C-51.86441347 735.45046878 -63.64648776 732.54169093 -74.6875 723.1875 C-83.34333019 715.20790654 -87.82925029 704.4443361 -88.90625 692.828125 C-89.50559678 677.14521746 -82.49111778 666.15814723 -72.5690918 654.85205078 C-66.21996826 647.59507734 -60.43755259 639.92271202 -54.6875 632.1875 C-54.24164551 631.58969727 -53.79579102 630.99189453 -53.33642578 630.37597656 C-4.75077905 564.88528934 22.35099975 481.9173622 16.4375 400.1875 C16.35886719 398.99382812 16.28023437 397.80015625 16.19921875 396.5703125 C15.74847949 382.24079827 15.74847949 382.24079827 9.09375 370.3046875 C2.51303092 362.48286789 -1.35263838 352.3455998 -3.99609375 342.6015625 C-4.45645893 340.25684691 -4.45645893 340.25684691 -5.6875 339.1875 C-5.93918945 339.96351563 -6.19087891 340.73953125 -6.45019531 341.5390625 C-7.60616711 345.09068255 -8.77174688 348.63907905 -9.9375 352.1875 C-10.33324219 353.40824219 -10.72898437 354.62898438 -11.13671875 355.88671875 C-15.52297043 369.18928532 -19.54562074 378.3902064 -32.4375 384.9375 C-54.53662211 395.65462231 -79.76252832 393.7982756 -102.53955078 385.98974609 C-142.40426662 371.10051488 -168.74959055 336.03164454 -185.91796875 298.6171875 C-190.28536268 288.72256884 -193.72420375 278.58171012 -196.6875 268.1875 C-196.8922998 267.49527344 -197.09709961 266.80304688 -197.30810547 266.08984375 C-204.88384001 239.43216262 -200.19413835 208.46042601 -187.6875 184.1875 C-182.4625706 174.88784988 -176.00301956 166.92751779 -168.6875 159.1875 C-167.65899297 157.96474709 -166.63737895 156.73613925 -165.625 155.5 C-155.97815609 144.26701733 -142.53967142 135.71712012 -130.41015625 127.39453125 C-128.74235993 126.30013855 -128.74235993 126.30013855 -127.6875 125.1875 C-128.29335938 125.00316406 -128.89921875 124.81882812 -129.5234375 124.62890625 C-143.33033448 119.84959576 -151.30459116 108.78171833 -157.9375 96.3125 C-165.18059871 81.05163961 -165.86010912 64.65816034 -160.9375 48.57421875 C-150.72434059 20.90293997 -123.69217565 -0.36705587 -97.78588867 -12.79370117 C-64.99352361 -27.64621243 -28.33996344 -21.73655975 0 0 Z M-105.6875 34.1875 C-114.8764046 45.75284544 -117.98657873 58.69451097 -116.91503906 73.20410156 C-115.64242679 84.29712956 -109.4161294 95.28321993 -101.6875 103.1875 C-96.94791434 106.89912916 -92.36957614 110.11760083 -86.6875 112.1875 C-86.35750774 109.22084148 -86.35750774 109.22084148 -88.04296875 107.64453125 C-88.64753906 107.10183594 -89.25210938 106.55914062 -89.875 106 C-98.42161184 97.76417404 -101.98256164 88.03934027 -102.68359375 76.30078125 C-102.70008277 63.15902838 -98.2466311 52.96814671 -89.28515625 43.453125 C-78.80359175 34.31130935 -66.1359769 32.29752726 -52.6875 33.1875 C-41.79996809 34.96719272 -32.92738589 41.08458135 -25.6875 49.1875 C-24.3675 48.1975 -23.0475 47.2075 -21.6875 46.1875 C-25.13489153 34.35317086 -34.57036321 26.65126098 -45.07421875 20.875 C-66.49601032 10.70619144 -89.91240184 17.14716359 -105.6875 34.1875 Z M-79.6875 64.1875 C-83.92982031 70.56768251 -85.57108801 78.28431078 -84.2109375 85.83203125 C-81.4228556 96.04989183 -75.45107691 102.61408231 -66.5625 108.125 C-59.58924618 110.68399223 -50.57124253 110.35885843 -43.75 107.5625 C-35.58720222 103.21607521 -29.88866082 97.19756632 -27.07421875 88.234375 C-25.32607807 78.98158996 -27.07928496 71.20915689 -31.8671875 63.21875 C-36.06034701 57.56170641 -42.10721739 54.38873333 -48.6875 52.1875 C-62.09661166 50.30063538 -70.75735341 54.24579698 -79.6875 64.1875 Z " fill="#090067" transform="translate(568.6875,216.8125)"/>
<path d="M0 0 C1.01535576 -0.01449629 2.03071152 -0.02899258 3.07683563 -0.04392815 C4.24304443 -0.06965904 5.40925323 -0.09538994 6.6108017 -0.12190056 C7.89183777 -0.12951408 9.17287384 -0.13712761 10.49272919 -0.14497185 C11.85464187 -0.16676313 13.21653047 -0.19010669 14.57839203 -0.21488762 C18.28126353 -0.275935 21.98388626 -0.30994601 25.68715858 -0.33532 C28.00379065 -0.35149659 30.32035161 -0.37185856 32.63694 -0.3933506 C39.89364892 -0.45881911 47.15018466 -0.5065976 54.40714884 -0.53097832 C62.76812872 -0.55943699 71.12571679 -0.64698106 79.48557329 -0.7859813 C85.9562869 -0.88983412 92.42604119 -0.93934684 98.8975749 -0.94862258 C102.75861822 -0.95539755 106.61623594 -0.98472916 110.47638702 -1.07118416 C135.79402007 -1.60792231 135.79402007 -1.60792231 141.67705536 3.50401497 C144.17162638 6.31021554 145.91339112 9.28734 147.50519085 12.67318153 C149.21613747 15.95077736 151.62078119 18.69902248 153.97515106 21.53129768 C154.89572398 22.70317268 155.8162969 23.87504768 156.73686981 25.04692268 C158.5299363 27.32912295 160.32426906 29.61031825 162.11968231 31.89067268 C167.86467993 39.19019907 173.57718724 46.51434668 179.27642059 53.84965706 C184.65053998 60.76365984 190.05745142 67.65142335 195.47515106 74.53129768 C202.10383583 82.94898808 208.70276478 91.38890407 215.27642059 99.84965706 C220.65053998 106.76365984 226.05745142 113.65142335 231.47515106 120.53129768 C238.10383583 128.94898808 244.70276478 137.38890407 251.27642059 145.84965706 C256.65053998 152.76365984 262.05745142 159.65142335 267.47515106 166.53129768 C274.10383583 174.94898808 280.70276478 183.38890407 287.27642059 191.84965706 C292.65053998 198.76365984 298.05745142 205.65142335 303.47515106 212.53129768 C309.49834769 220.18008567 315.50189969 227.84341185 321.47515106 235.53129768 C325.90148346 241.22758906 330.33415713 246.91870621 334.78765106 252.59379768 C335.48084442 253.47841682 335.48084442 253.47841682 336.18804169 254.38090706 C338.23052044 257.04366782 338.23052044 257.04366782 340.47515106 259.53129768 C342.16124072 259.6033528 343.85015765 259.61515836 345.53765106 259.59379768 C346.91630341 259.58026253 346.91630341 259.58026253 348.32280731 259.56645393 C349.03308075 259.55485237 349.74335419 259.54325081 350.47515106 259.53129768 C338.91165905 244.45079889 327.23212081 229.46133808 315.47515106 214.53129768 C308.84646629 206.11360729 302.24753734 197.6736913 295.67388153 189.21293831 C289.84435927 181.71304293 283.97667623 174.24354489 278.09722137 166.78276253 C277.6367038 166.19833382 277.17618622 165.61390511 276.70171356 165.01176643 C276.0092453 164.13331062 276.0092453 164.13331062 275.30278778 163.23710823 C274.38524873 162.06996117 273.47015461 160.90088738 272.55767059 159.72978401 C270.2441045 156.76136391 267.90084503 153.82837357 265.49077606 150.93754768 C265.0158371 150.354972 264.54089813 149.77239632 264.05156708 149.17216682 C263.14721819 148.06307169 262.22897007 146.96512069 261.29521942 145.88066292 C260.08061981 144.37114143 260.08061981 144.37114143 258.47515106 141.53129768 C259.21806075 136.61850783 263.3555773 132.73882364 266.47515106 129.03129768 C267.66527392 127.59228484 268.85406294 126.15216786 270.04155731 124.71098518 C270.62824188 124.00038948 271.21492645 123.28979378 271.81938934 122.55766487 C274.90758614 118.77824384 277.85127596 114.8923025 280.81108856 111.01176643 C284.57093006 106.08402959 288.39576228 101.20640026 292.2151413 96.32475471 C292.76629608 95.61818733 293.31745087 94.91161995 293.88530731 94.18364143 C294.44318939 93.49949165 295.00107147 92.81534187 295.57585907 92.11046028 C297.56792479 89.55165878 297.56792479 89.55165878 299.01581573 86.50923347 C301.47489105 82.18137603 303.70163142 78.44762823 308.62068367 76.82244492 C315.22704577 75.63155569 321.93601852 75.82461063 328.62358856 75.90239143 C330.80399692 75.89175449 332.98439104 75.87770627 335.16475677 75.86041451 C339.72660678 75.83825948 344.28563451 75.85979094 348.84722137 75.91191292 C354.67209929 75.97463346 360.48962286 75.92499228 366.31402397 75.84184361 C370.81519077 75.7907677 375.31462939 75.80167219 379.81592941 75.83063126 C381.96159071 75.83675398 384.10740324 75.82354376 386.25281143 75.7900238 C403.82500141 75.56771327 403.82500141 75.56771327 409.19252777 80.39074898 C412.08025402 83.515306 414.27518556 86.89841562 416.47515106 90.53129768 C417.53818355 91.94710327 418.6137407 93.35391018 419.71733856 94.73832893 C420.59835968 95.93764924 421.47601811 97.13944766 422.35015106 98.34379768 C426.98231873 104.62178508 431.80845339 110.70515983 436.7554245 116.73710823 C440.52897624 121.34526083 444.20321825 126.01555554 447.81645966 130.75004768 C450.75387602 134.59883146 453.72800719 138.41635405 456.72515106 142.21879768 C460.99632777 147.6399654 465.24148397 153.08078883 469.47515106 158.53129768 C475.44823855 166.21930984 481.45195536 173.88251087 487.47515106 181.53129768 C494.10383583 189.94898808 500.70276478 198.38890407 507.27642059 206.84965706 C512.65053998 213.76365984 518.05745142 220.65142335 523.47515106 227.53129768 C524.79737307 229.21037218 526.11933265 230.88957345 527.43657684 232.57255745 C528.33999916 233.71514017 529.25520329 234.84850159 530.18169403 235.97245979 C532.89168899 239.30141574 535.13822022 242.62321325 537.22515106 246.37895393 C540.32055935 251.57948387 543.20451372 256.33312882 548.47515106 259.53129768 C558.26757403 261.97772411 568.49557801 261.21201502 578.47515106 260.53129768 C578.47515106 268.12129768 578.47515106 275.71129768 578.47515106 283.53129768 C303.25515106 283.53129768 28.03515106 283.53129768 -255.52484894 283.53129768 C-255.52484894 275.94129768 -255.52484894 268.35129768 -255.52484894 260.53129768 C-250.28480988 260.63184456 -250.28480988 260.63184456 -244.93891144 260.73442268 C-241.5297345 260.75844904 -238.12111325 260.76181567 -234.71186066 260.76323128 C-232.35488165 260.7751858 -229.99790574 260.8083928 -227.64154816 260.86381721 C-213.99242303 261.84697077 -213.99242303 261.84697077 -201.85883331 256.99077034 C-199.21925636 254.14045402 -197.3959383 250.92952999 -195.52484894 247.53129768 C-194.00551507 245.43196673 -192.39558709 243.43071475 -190.77484894 241.40629768 C-189.94369142 240.32038038 -189.11388723 239.23342308 -188.28656769 238.14457893 C-185.08038527 233.9400784 -181.83470972 229.76653124 -178.58734894 225.59379768 C-177.69004059 224.44065071 -177.69004059 224.44065071 -176.7746048 223.26420784 C-170.94476761 215.77786983 -165.08166868 208.31795056 -159.21137238 200.86332893 C-153.62677807 193.76994343 -148.06384208 186.66036775 -142.52484894 179.53129768 C-136.9903445 172.40800491 -131.43176734 165.30433077 -125.85150909 158.21684456 C-123.57398691 155.32320946 -121.29957352 152.42713216 -119.02484894 149.53129768 C-116.3114615 146.07702417 -113.5975954 142.6231372 -110.88031769 139.17192268 C-105.74058502 132.64143882 -100.62364552 126.0938041 -95.52484894 119.53129768 C-89.11744278 111.28451958 -82.67240279 103.06811699 -76.21137238 94.86332893 C-70.62677807 87.76994343 -65.06384208 80.66036775 -59.52484894 73.53129768 C-53.11744278 65.28451958 -46.67240279 57.06811699 -40.21137238 48.86332893 C-34.0271853 41.00835853 -27.87375689 33.13023393 -21.74115753 25.23491096 C-17.5095534 19.78959998 -13.25873986 14.35982656 -8.98773956 8.94536018 C-6.4724053 5.76707606 -6.4724053 5.76707606 -4.23701477 2.39097977 C-2.52484894 0.53129768 -2.52484894 0.53129768 0 0 Z " fill="#090067" transform="translate(1052.5248489379883,401.4687023162842)"/>
<path d="M0 0 C10.82352094 -0.06989734 21.64698707 -0.12301127 32.47068882 -0.15543652 C37.49803779 -0.17100885 42.52523092 -0.19209065 47.55249023 -0.22631836 C52.41546572 -0.25921561 57.27829249 -0.2769162 62.14137077 -0.28463173 C63.98506952 -0.29012129 65.8287613 -0.30083879 67.67239571 -0.31719017 C92.69836164 -0.53006637 113.67156819 4.99414859 132 23 C133.16208984 24.12535156 133.16208984 24.12535156 134.34765625 25.2734375 C148.31270019 39.69360294 154.31576653 58.82197747 154.2421875 78.66992188 C153.85859621 99.74826318 143.44319565 116.45630503 130 132 C130.556875 132.6084375 131.11375 133.216875 131.6875 133.84375 C147.61304672 152.13660772 153.31673813 174.06462691 152 198 C149.81682223 220.67551789 137.9872645 239.38970423 121 254 C101.37899158 269.02827931 79.79043578 271.16799221 55.9921875 271.1328125 C54.37362656 271.13348736 52.75506572 271.13445891 51.13650513 271.13571167 C47.76970439 271.13717584 44.40293041 271.13507278 41.03613281 271.13037109 C36.71281791 271.12462841 32.38956449 271.12798926 28.06625175 271.13394356 C24.73610972 271.13754484 21.40598246 271.13641339 18.07584 271.13381577 C16.48016477 271.13314766 14.88448822 271.13397088 13.28881454 271.13629532 C11.07255188 271.13881965 8.85639169 271.13498655 6.64013672 271.12939453 C5.37869843 271.12859894 4.11726013 271.12780334 2.81759644 271.12698364 C0 271 0 271 -1 270 C-1.10122745 267.32653459 -1.13611244 264.67893429 -1.12939453 262.00488281 C-1.13112419 261.15153382 -1.13285385 260.29818483 -1.13463593 259.41897678 C-1.13905892 256.51367424 -1.13600647 253.60842854 -1.1328125 250.703125 C-1.13383195 248.59950239 -1.13517358 246.49587991 -1.1368103 244.39225769 C-1.13956391 238.57190358 -1.13494076 232.75157532 -1.12857056 226.93122482 C-1.12500945 223.25974193 -1.12338078 219.58826297 -1.12231445 215.91677856 C-1.09660165 143.94339138 -0.52614734 71.97111499 0 0 Z M47 47 C47 66.8 47 86.6 47 107 C55.353125 107.12375 55.353125 107.12375 63.875 107.25 C65.61120605 107.28641602 67.34741211 107.32283203 69.13623047 107.36035156 C79.17445648 107.48278279 86.72021833 106.5536992 95.25 100.8125 C101.97712143 93.93248945 105.93711948 86.8698784 106.3125 77.125 C105.98983991 66.44495091 101.64324854 60.30120988 94 53 C87.87193408 47.70043717 80.76232449 46.68917621 72.87890625 46.8046875 C71.88691223 46.80770874 71.88691223 46.80770874 70.87487793 46.81079102 C68.43734664 46.82114503 65.99991532 46.84906639 63.5625 46.875 C55.3640625 46.936875 55.3640625 46.936875 47 47 Z M47 155 C47 177.11 47 199.22 47 222 C73.94649161 223.6031677 73.94649161 223.6031677 95 212 C102.6640704 202.6539956 105.05019985 194.02552781 104 182 C102.37762207 172.5726688 96.55875727 165.61939462 89 160.0625 C76.47501948 151.34857441 62.10296013 155 47 155 Z " fill="#090067" transform="translate(1119,1266)"/>
<path d="M0 0 C0.82300598 -0.0049649 1.64601196 -0.00992981 2.49395752 -0.01504517 C5.23613307 -0.02972769 7.97825045 -0.03648476 10.72045898 -0.04199219 C12.6312612 -0.04774605 14.54206341 -0.05350375 16.4528656 -0.05926514 C20.4755785 -0.06979739 24.49827133 -0.07562304 28.52099609 -0.07910156 C33.63464594 -0.08454012 38.74802324 -0.10845768 43.86158848 -0.13707352 C47.81943988 -0.15587289 51.77722853 -0.16091496 55.73512077 -0.16243744 C57.61705933 -0.1654342 59.49899759 -0.17335991 61.3808918 -0.18662262 C86.39810134 -0.35009953 108.20417002 4.72724071 127.15405273 22.16113281 C143.48243426 39.30457498 149.68429092 58.68790971 149.36108398 82.05175781 C148.81134812 100.35829944 141.00001447 118.28494291 128.15405273 131.34863281 C127.49405273 131.94675781 126.83405273 132.54488281 126.15405273 133.16113281 C127.48080363 136.85381387 129.1259621 139.70881611 131.46655273 142.84863281 C141.00761057 156.26945691 145.21390776 170.89435079 145.39111328 187.27758789 C145.40422546 188.16297241 145.41733765 189.04835693 145.43084717 189.96057129 C145.47240073 192.86722625 145.50704858 195.77390837 145.54077148 198.68066406 C145.56644315 200.70611204 145.59222707 202.7315586 145.61811829 204.75700378 C145.67095066 208.99088349 145.71990387 213.22478866 145.76660156 217.45874023 C145.82722519 222.89425016 145.90143103 228.32948398 145.97897625 233.76477528 C146.03642641 237.9415748 146.08478939 242.11844305 146.13056374 246.29538536 C146.15401601 248.30056534 146.18078336 250.30570932 146.21088219 252.31080055 C146.25184609 255.10440692 146.28014126 257.89786228 146.30517578 260.69165039 C146.32763115 261.9407444 146.32763115 261.9407444 146.35054016 263.21507263 C146.36157493 265.19814385 146.26762669 267.1812858 146.15405273 269.16113281 C144.15405273 271.16113281 144.15405273 271.16113281 142.17393494 271.40837097 C141.36420731 271.40694595 140.55447968 271.40552094 139.72021484 271.40405273 C138.80263901 271.40712936 137.88506317 271.41020599 136.93968201 271.41337585 C135.45058067 271.40259758 135.45058067 271.40259758 133.93139648 271.39160156 C132.91557999 271.39114334 131.89976349 271.39068512 130.85316467 271.39021301 C128.70369297 271.38718877 126.55422349 271.37929738 124.40478516 271.36694336 C121.10172831 271.34868905 117.79895161 271.34643361 114.49584961 271.34667969 C112.41186279 271.3417646 110.32787789 271.33593632 108.24389648 271.32910156 C107.24913803 271.32798874 106.25437958 271.32687592 105.22947693 271.32572937 C104.31505325 271.31934952 103.40062958 271.31296967 102.45849609 271.30639648 C101.64956406 271.30258469 100.84063202 271.29877289 100.00718689 271.29484558 C98.15405273 271.16113281 98.15405273 271.16113281 97.15405273 270.16113281 C97.04482617 267.47024222 96.99982268 264.80407822 96.99633789 262.11230469 C96.99125717 261.26830109 96.98617645 260.42429749 96.98094177 259.55471802 C96.97021112 257.714239 96.9616016 255.87374671 96.95482254 254.0332489 C96.94305683 251.11539864 96.92360646 248.19769796 96.90170288 245.27990723 C96.84003415 236.98092679 96.78616941 228.68195813 96.75268555 220.3828125 C96.7316697 215.3111038 96.69630141 210.23966181 96.65192795 205.16810608 C96.63781169 203.23856257 96.62905544 201.3089718 96.62587357 199.37937927 C96.62093214 196.6676778 96.59768845 193.95667522 96.57055664 191.24511719 C96.57356277 190.45618073 96.57656891 189.66724426 96.57966614 188.85440063 C96.43381434 178.9752749 93.03541819 171.22848112 86.15405273 164.16113281 C78.97310839 158.22353219 72.03284977 155.97969207 62.68920898 155.74707031 C62.01103622 155.72770416 61.33286346 155.70833801 60.63414001 155.68838501 C58.49506707 155.62921282 56.35593845 155.58245762 54.21655273 155.53613281 C52.75494238 155.49789536 51.29335316 155.45884039 49.83178711 155.41894531 C46.2727373 155.32356462 42.71352687 155.23930714 39.15405273 155.16113281 C39.15627335 155.71694031 39.15849396 156.2727478 39.16078186 156.84539795 C39.26773921 185.07571022 39.20193672 213.29678847 38.74833298 241.52351379 C38.7164732 243.54116976 38.68651951 245.55884645 38.65701294 247.57653809 C38.60038737 251.34183298 38.53676092 255.10693482 38.47045898 258.87207031 C38.44538269 260.57129135 38.44538269 260.57129135 38.4197998 262.30484009 C38.39985962 263.33040009 38.37991943 264.35596008 38.359375 265.41259766 C38.34383072 266.31037933 38.32828644 267.20816101 38.31227112 268.13314819 C38.15405273 270.16113281 38.15405273 270.16113281 37.15405273 271.16113281 C35.75279937 271.26435479 34.34644004 271.29962711 32.94140625 271.30639648 C32.04700333 271.31277634 31.1526004 271.31915619 30.23109436 271.32572937 C29.25820969 271.32684219 28.28532501 271.32795502 27.28295898 271.32910156 C26.29029526 271.33242996 25.29763153 271.33575836 24.27488708 271.33918762 C22.17073023 271.34426122 20.06656531 271.34659582 17.96240234 271.34643555 C14.73383391 271.34862111 11.50560747 271.36676981 8.27709961 271.38574219 C6.23738724 271.38867613 4.19767324 271.39066092 2.15795898 271.39160156 C1.18709854 271.39878708 0.2162381 271.4059726 -0.78404236 271.41337585 C-1.68159744 271.41029922 -2.57915253 271.4072226 -3.50390625 271.40405273 C-4.29586899 271.40547775 -5.08783173 271.40690277 -5.90379333 271.40837097 C-7.84594727 271.16113281 -7.84594727 271.16113281 -9.84594727 269.16113281 C-10.07591152 266.77114105 -10.07591152 266.77114105 -10.04771423 263.66638184 C-10.04223603 262.46802956 -10.03675783 261.26967728 -10.03111362 260.03501129 C-10.0149205 258.67275448 -9.99868822 257.31049813 -9.98242188 255.94824219 C-9.97257113 254.48632198 -9.96378695 253.02439427 -9.95595455 251.56246185 C-9.9371257 248.26431911 -9.91291184 244.96626672 -9.88575363 241.66818237 C-9.84016071 235.81341181 -9.82148383 229.95867784 -9.80618286 224.10375977 C-9.80039607 221.94166817 -9.7946004 219.7795766 -9.78879642 217.61748505 C-9.78583785 216.51297721 -9.78287928 215.40846937 -9.77983105 214.2704916 C-9.76291153 208.38649248 -9.74108767 202.50251244 -9.71913147 196.61853027 C-9.71458802 195.39929698 -9.71004458 194.18006368 -9.70536345 192.92388391 C-9.64112597 175.80992283 -9.57509419 158.69596825 -9.50660801 141.58202362 C-9.4956045 138.82925928 -9.48461235 136.0764949 -9.47363281 133.32373047 C-9.47090451 132.63985986 -9.4681762 131.95598925 -9.46536522 131.25139529 C-9.42089479 120.07678818 -9.38035926 108.90217011 -9.34129465 97.72754294 C-9.30091282 86.19696092 -9.25672212 74.66639909 -9.20906872 63.13584471 C-9.18250913 56.68365275 -9.15765016 50.23146449 -9.13687325 43.7792511 C-9.11736878 37.74444368 -9.09324459 31.70967294 -9.06545639 25.67489815 C-9.05606603 23.45641807 -9.04839796 21.23792998 -9.04252815 19.01943779 C-9.03430409 16.00652963 -9.02003998 12.99371104 -9.00416565 9.98083496 C-9.00318754 9.0918849 -9.00220944 8.20293485 -9.00120169 7.28704691 C-8.94631622 -0.7359484 -7.35624515 0.01047838 0 0 Z M39.15405273 47.16113281 C39.15405273 66.96113281 39.15405273 86.76113281 39.15405273 107.16113281 C45.40342773 107.24363281 51.65280273 107.32613281 58.09155273 107.41113281 C60.04569092 107.44754883 61.9998291 107.48396484 64.01318359 107.52148438 C65.59007677 107.53318439 67.16698219 107.54337309 68.74389648 107.55175781 C69.93795105 107.58245361 69.93795105 107.58245361 71.15612793 107.61376953 C80.04150205 107.61920152 86.95051822 104.08077668 93.36499023 98.07519531 C99.1638445 91.87118092 102.07929296 85.16994957 102.18530273 76.64941406 C101.67626112 68.33930965 98.42114229 60.81679899 92.15405273 55.16113281 C80.64061869 46.71794784 69.26785466 46.88905481 55.59155273 47.03613281 C50.16717773 47.07738281 44.74280273 47.11863281 39.15405273 47.16113281 Z " fill="#090067" transform="translate(198.845947265625,1265.8388671875)"/>
<path d="M0 0 C11.21464235 -0.0931697 22.42919081 -0.16400147 33.6441431 -0.20724869 C38.85315298 -0.22801768 44.06189574 -0.25613729 49.27075195 -0.30175781 C54.30880247 -0.34560024 59.346598 -0.3692172 64.38482475 -0.37950897 C66.29552658 -0.38683207 68.20621634 -0.40112977 70.11680794 -0.42292023 C91.91947072 -0.66142196 110.35614512 3.98846714 127 19 C127.68449219 19.59167969 128.36898438 20.18335938 129.07421875 20.79296875 C142.31278821 32.99117912 150.75439545 51.45312104 152.27984428 69.26818085 C152.39257382 72.68437404 152.41709725 76.08882308 152.40405273 79.50683594 C152.41091599 80.78840576 152.41777924 82.06997559 152.42485046 83.39038086 C152.44260243 86.86592271 152.44164734 90.34120962 152.43590808 93.81678295 C152.43278847 96.73859681 152.43893944 99.66036362 152.44494683 102.58217072 C152.4589329 109.48743852 152.45748176 116.39258246 152.44604492 123.29785156 C152.43458261 130.37396766 152.44862096 137.44970389 152.4754414 144.52576995 C152.49774392 150.64347137 152.50420296 156.76105485 152.49836498 162.87879395 C152.4950271 166.51384987 152.49719466 170.14866283 152.51461601 173.78368378 C152.67179091 210.00111433 152.67179091 210.00111433 144.25 225.4375 C143.90565918 226.09379395 143.56131836 226.75008789 143.20654297 227.42626953 C140.098886 233.16815688 136.42866587 238.1961617 132 243 C131.22785156 243.85207031 130.45570313 244.70414063 129.66015625 245.58203125 C124.02104698 251.52403107 118.128061 255.9885371 111 260 C109.79923828 260.69222656 109.79923828 260.69222656 108.57421875 261.3984375 C97.62075887 267.31438146 85.39108423 270.09575576 73.00683594 270.22119141 C72.22888672 270.2326973 71.4509375 270.24420319 70.64941406 270.25605774 C68.0944401 270.29255242 65.5394414 270.32231134 62.984375 270.3515625 C61.20411856 270.37469313 59.42386548 270.39808359 57.64361572 270.42172241 C53.92162071 270.4700587 50.19960395 270.51501178 46.47753906 270.55761719 C41.70009041 270.61261131 36.92280659 270.67642767 32.145504 270.74279213 C28.47393954 270.79277124 24.80232796 270.83793179 21.1306839 270.88163376 C19.36835026 270.90322998 17.60603499 270.92638189 15.84374237 270.9510994 C13.38771851 270.98486189 10.93170766 271.01210663 8.47558594 271.03759766 C7.74414368 271.04897263 7.01270142 271.0603476 6.25909424 271.07206726 C1.22849419 271.11424709 1.22849419 271.11424709 -1 270 C-1.03084677 243.56250572 -1.05104969 217.12500975 -1.0625 190.6875 C-1.0629343 189.71329589 -1.06336861 188.73909179 -1.06381607 187.73536634 C-1.08535306 138.09222843 -1.07271525 88.45298159 -0.5 38.8125 C-0.48206327 37.2563328 -0.48206327 37.2563328 -0.46376419 35.66872787 C-0.32534546 23.77892201 -0.17308682 11.88935284 0 0 Z M48 47 C47.81765855 57.22893028 47.65320412 67.45809665 47.5 77.6875 C47.48812275 78.47995872 47.4762455 79.27241745 47.46400833 80.08889008 C46.98999909 112.10092471 46.91338084 144.10983654 46.9375 176.125 C46.93835602 177.26939419 46.93921204 178.41378838 46.94009399 179.59286118 C46.9514559 193.72858999 46.97148991 207.86429571 47 222 C50.94684991 222.07505712 54.89341427 222.12902215 58.84082031 222.16479492 C60.83152905 222.18701479 62.82203968 222.22516595 64.8125 222.26367188 C77.08863097 222.35667287 85.9899255 220.63033956 95 212 C102.90731172 203.36756362 104.4492611 195.06952086 104.40405273 183.66821289 C104.41434761 181.84472069 104.41434761 181.84472069 104.42485046 179.98439026 C104.43995427 176.67012475 104.44162963 173.35642462 104.43590808 170.04216695 C104.43280404 167.26648308 104.43892211 164.49084941 104.44494683 161.71517271 C104.45896288 155.16269258 104.45745518 148.61034291 104.44604492 142.05786133 C104.43456607 135.31739354 104.44864177 128.57732376 104.4754414 121.8369084 C104.49765339 116.03110598 104.50422347 110.22542799 104.49836498 104.41958612 C104.49500733 100.96020527 104.49733035 97.50107946 104.51461601 94.0417347 C104.53306599 90.18139374 104.51884156 86.32153612 104.50170898 82.46118164 C104.51621094 80.76128082 104.51621094 80.76128082 104.53100586 79.02703857 C104.4396789 69.17387431 101.70559487 62.03327701 95 54.79296875 C88.18550999 48.68388493 81.57080113 46.86678254 72.609375 46.90234375 C71.55245453 46.90446617 71.55245453 46.90446617 70.47418213 46.90663147 C68.23274416 46.91221067 65.99140757 46.92475927 63.75 46.9375 C62.22656395 46.94251769 60.70312632 46.94708013 59.1796875 46.95117188 C55.45309228 46.96217326 51.72655604 46.97942354 48 47 Z " fill="#090067" transform="translate(1477,1266)"/>
<path d="M0 0 C0.82300598 -0.0065712 1.64601196 -0.0131424 2.49395752 -0.01991272 C5.23612556 -0.03972292 7.97823821 -0.05133529 10.72045898 -0.0612793 C11.65940443 -0.06535482 12.59834988 -0.06943035 13.56574821 -0.07362938 C18.55082862 -0.09453885 23.53588124 -0.10881029 28.52099609 -0.11816406 C33.6347274 -0.12914206 38.74801307 -0.1634264 43.86158848 -0.20333576 C47.81943982 -0.22970982 51.77718932 -0.23787494 55.73512077 -0.24144554 C57.6170745 -0.24627077 59.49902496 -0.25776627 61.3808918 -0.27648354 C85.48748151 -0.50103129 104.99330124 5.78595015 122.69311523 22.5871582 C138.25399953 39.03036068 144.29373403 58.37724789 144.31518555 80.55957031 C144.32015045 81.79310242 144.32511536 83.02663452 144.33023071 84.29754639 C144.34229539 87.66794922 144.34978676 91.03829036 144.35424137 94.40870738 C144.35718539 96.52234263 144.36129277 98.63597261 144.36574554 100.74960518 C144.37940646 107.38537027 144.38907814 114.02112313 144.39294744 120.6569013 C144.39741507 128.27378773 144.41490835 135.89049354 144.44394803 143.50732511 C144.4657012 149.42189606 144.47565903 155.33641672 144.47698855 161.25102717 C144.47802754 164.77042365 144.48373788 168.28965007 144.50180817 171.80900383 C144.67740719 208.10694139 144.67740719 208.10694139 136.15405273 225.17700195 C135.67323242 226.15024414 135.19241211 227.12348633 134.69702148 228.1262207 C124.52528234 247.05901984 107.20761898 260.42908371 87.00170898 267.23950195 C79.40257939 269.40770354 71.93011005 270.31796658 64.03149414 270.39819336 C63.2517926 270.40969925 62.47209106 270.42120514 61.66876221 270.43305969 C59.11441849 270.46948295 56.56005004 270.4992817 54.00561523 270.52856445 C52.22439246 270.55169888 50.44317299 270.57508936 48.66195679 270.59872437 C44.94174163 270.64701844 41.22150484 270.6919805 37.5012207 270.73461914 C32.72258275 270.78969282 27.94410698 270.85349602 23.16561317 270.91979408 C19.49409079 270.96972357 15.82252184 271.01490335 12.15092087 271.05863571 C10.38776095 271.08025025 8.62461923 271.10340482 6.86149979 271.12810135 C4.407776 271.16179751 1.95406463 271.18907445 -0.49975586 271.21459961 C-1.23322235 271.22597458 -1.96668884 271.23734955 -2.72238159 271.24906921 C-4.43034521 271.26345068 -6.13862226 271.22586786 -7.84594727 271.17700195 C-9.42007967 269.60286955 -8.97135342 268.04258194 -8.97178841 265.85567474 C-8.97439615 264.91726698 -8.9770039 263.97885922 -8.97969067 263.01201487 C-8.97745995 261.96894474 -8.97522923 260.92587461 -8.97293091 259.85119629 C-8.97527089 258.20325962 -8.97527089 258.20325962 -8.97765815 256.52203131 C-8.98167334 252.810003 -8.97847651 249.098015 -8.9753418 245.38598633 C-8.97669561 242.7372475 -8.978439 240.08851154 -8.98065186 237.43977356 C-8.98511025 230.9738512 -8.98413278 224.50794041 -8.98123921 218.04201758 C-8.97898545 212.78937855 -8.97867254 207.53674277 -8.97976303 202.28410339 C-8.97991626 201.53795543 -8.9800695 200.79180747 -8.98022737 200.02304897 C-8.98054708 198.50750323 -8.9808713 196.99195749 -8.98119996 195.47641176 C-8.98405496 181.24827177 -8.98076743 167.02013821 -8.9753996 152.79199928 C-8.97093154 140.57023263 -8.97170747 128.34847547 -8.97631836 116.12670898 C-8.98166378 101.95123275 -8.98378027 87.77576216 -8.9807061 73.60028505 C-8.98038753 72.09015687 -8.98007316 70.58002869 -8.97976303 69.06990051 C-8.97960876 68.32679055 -8.97945448 67.58368059 -8.97929553 66.81805214 C-8.97843028 61.56865672 -8.97989343 56.31926486 -8.98224258 51.06987 C-8.98504043 44.67701419 -8.98430266 38.28417068 -8.97896184 31.89131629 C-8.97632461 28.62644775 -8.9758539 25.36160409 -8.97861099 22.096735 C-8.98131937 18.56540501 -8.97794521 15.0341338 -8.97293091 11.50280762 C-8.97516163 10.45973749 -8.97739235 9.41666736 -8.97969067 8.34198904 C-8.97708292 7.40358128 -8.97447518 6.46517352 -8.97178841 5.49832916 C-8.97162605 4.6820928 -8.9714637 3.86585645 -8.97129643 3.02488565 C-8.6619918 -1.53484945 -3.50178596 0.01199819 0 0 Z M39.15405273 47.17700195 C39.15405273 104.92700195 39.15405273 162.67700195 39.15405273 222.17700195 C64.83972712 223.69312862 64.83972712 223.69312862 86.14624023 213.23168945 C94.96182544 204.21029292 96.45442945 194.30415028 96.44458008 182.25 C96.4512973 181.06535156 96.45801453 179.88070313 96.4649353 178.66015625 C96.48062833 175.42649103 96.48728741 172.19298036 96.48856688 168.95928168 C96.48999347 166.93412995 96.49427265 164.90900475 96.49956131 162.88385963 C96.51803643 155.80488006 96.52623513 148.72597554 96.5246582 141.64697266 C96.52345763 135.0707213 96.54454965 128.49479856 96.57614553 121.9186303 C96.60238307 116.25382067 96.61302238 110.58911789 96.61174738 104.92424804 C96.61123992 101.54919562 96.61680243 98.17443554 96.63810349 94.7994442 C96.65777494 91.03008393 96.65191971 87.26156227 96.63989258 83.4921875 C96.6567511 81.83740135 96.6567511 81.83740135 96.6739502 80.14918518 C96.59916064 70.89009466 94.42496255 62.69759874 87.99780273 55.77856445 C73.17789554 42.90533998 60.60060531 47.17700195 39.15405273 47.17700195 Z " fill="#090067" transform="translate(1667.845947265625,1265.822998046875)"/>
<path d="M0 0 C0.91765137 -0.00315216 1.83530273 -0.00630432 2.78076172 -0.009552 C4.27760498 -0.00651566 4.27760498 -0.00651566 5.8046875 -0.00341797 C6.82191895 -0.00437469 7.83915039 -0.00533142 8.88720703 -0.00631714 C11.04264386 -0.00699908 13.19808272 -0.00514382 15.35351562 -0.00097656 C18.66541121 0.00437148 21.97717117 -0.0009211 25.2890625 -0.00732422 C27.37760447 -0.00666344 29.46614635 -0.00538228 31.5546875 -0.00341797 C32.55258301 -0.0054422 33.55047852 -0.00746643 34.57861328 -0.009552 C35.49626465 -0.00639984 36.41391602 -0.00324768 37.359375 0 C38.17132324 0.00079559 38.98327148 0.00159119 39.81982422 0.00241089 C41.6796875 0.12939453 41.6796875 0.12939453 42.6796875 1.12939453 C42.78100106 3.71191989 42.81681418 6.26793591 42.81098938 8.85105896 C42.81310509 9.6697353 42.81522081 10.48841165 42.81740063 11.33189636 C42.82342995 14.09700981 42.82239839 16.862078 42.8215332 19.62719727 C42.8245629 21.60124286 42.82808382 23.57528775 42.83206177 25.54933167 C42.83996803 29.81257137 42.84510227 34.07580264 42.84835243 38.33904839 C42.85425165 45.08389229 42.87078337 51.82868311 42.88969421 58.57350159 C42.89603228 60.88113686 42.90235789 63.18877217 42.90867138 65.49640751 C42.91183719 66.65241557 42.915003 67.80842364 42.91826475 68.99946225 C42.96035527 84.70837215 42.99329738 100.41725821 43.00561523 116.1262207 C43.01400161 126.71238671 43.03651798 137.29842224 43.0749709 147.88452297 C43.09472004 153.48742891 43.10714006 159.09013984 43.10213661 164.69308281 C43.09748219 169.97004277 43.11133934 175.24663387 43.13914871 180.52351952 C43.14604836 182.45598897 43.14620031 184.38849665 43.13894844 186.32096481 C43.09576726 199.1257216 43.46878494 209.67993105 52.7734375 219.43798828 C58.83606384 224.81732682 65.64801019 226.42686406 73.6796875 226.12939453 C82.16242483 224.50730369 88.10434431 220.31359111 93.28515625 213.52001953 C96.96273241 207.21560325 98.12366238 201.66771038 98.07168579 194.50538635 C98.07762705 193.67437894 98.08356831 192.84337153 98.08968961 191.98718208 C98.10590676 189.2226797 98.10104424 186.45863124 98.09619141 183.6940918 C98.1035756 181.70440663 98.11228189 179.71472599 98.12220764 177.72505188 C98.1454864 172.33717682 98.15067736 166.94941705 98.15286684 161.56149793 C98.15853309 155.92449926 98.1818077 150.28757542 98.20346069 144.65061951 C98.24195411 133.9812564 98.26619424 123.31191476 98.28458536 112.64249986 C98.31803095 93.50921206 98.37561362 74.37598822 98.43857706 55.24277729 C98.46011812 48.52430677 98.47535894 41.8058587 98.48541665 35.08736145 C98.49240999 30.92131414 98.50328589 26.75528301 98.51505852 22.58924675 C98.51963479 20.64975694 98.52246822 18.71026216 98.52348137 16.77076721 C98.52504171 14.13531681 98.53259003 11.49995082 98.54165649 8.86451721 C98.54005412 7.69811458 98.54005412 7.69811458 98.53841937 6.50814825 C98.56565081 1.24343122 98.56565081 1.24343122 99.6796875 0.12939453 C101.11709103 0.03125466 102.55925077 0.00141173 104 0 C104.91765137 -0.00315216 105.83530273 -0.00630432 106.78076172 -0.009552 C108.27760498 -0.00651566 108.27760498 -0.00651566 109.8046875 -0.00341797 C110.82191895 -0.00437469 111.83915039 -0.00533142 112.88720703 -0.00631714 C115.04264386 -0.00699908 117.19808272 -0.00514382 119.35351562 -0.00097656 C122.66541121 0.00437148 125.97717117 -0.0009211 129.2890625 -0.00732422 C131.37760447 -0.00666344 133.46614635 -0.00538228 135.5546875 -0.00341797 C136.55258301 -0.0054422 137.55047852 -0.00746643 138.57861328 -0.009552 C139.49626465 -0.00639984 140.41391602 -0.00324768 141.359375 0 C142.17132324 0.00079559 142.98327148 0.00159119 143.81982422 0.00241089 C145.6796875 0.12939453 145.6796875 0.12939453 146.6796875 1.12939453 C146.79425275 3.63508707 146.84356282 6.11398747 146.85136414 8.62086487 C146.8608878 9.81190265 146.8608878 9.81190265 146.87060386 11.0270018 C146.89077107 13.7089902 146.90374134 16.39096602 146.91674805 19.07299805 C146.92959337 20.98805 146.94284752 22.90309925 146.95648193 24.81814575 C146.99220507 30.04004655 147.02138636 35.26196466 147.04887366 40.48391461 C147.06635995 43.74965396 147.08523972 47.01538216 147.10462379 50.28111076 C147.17228244 61.68518641 147.23466189 73.0892773 147.29223633 84.4934082 C147.34592822 95.10127673 147.41102913 105.70903298 147.48157471 116.31680161 C147.54168708 125.4328845 147.59368091 134.54899092 147.63950187 143.66515678 C147.66698143 149.10504326 147.69765166 154.544864 147.73651695 159.98468208 C147.77289401 165.11539796 147.79907494 170.24607094 147.8177948 175.37688065 C147.82629014 177.24881012 147.83826009 179.12072798 147.85418129 180.99260902 C148.06936206 206.97140869 144.59768921 229.94989746 126.6796875 250.12939453 C126.08800781 250.81517578 125.49632812 251.50095703 124.88671875 252.20751953 C113.59072241 264.44284179 96.57601923 273.00091634 79.95288086 274.35083008 C56.13479758 275.29950788 36.7719984 270.56349036 18.6796875 254.12939453 C18.04675781 253.58927734 17.41382813 253.04916016 16.76171875 252.49267578 C2.27047679 239.32786329 -5.27609727 218.77892469 -6.47541428 199.65636826 C-6.70792037 193.07883191 -6.61162358 186.50208577 -6.53515625 179.92236328 C-6.5207894 177.68280388 -6.5078986 175.44323462 -6.49632263 173.20365906 C-6.46813603 168.24405322 -6.43058638 163.28462732 -6.38690186 158.32513428 C-6.31719913 150.32184452 -6.27727282 142.3185144 -6.24151731 134.31501031 C-6.17197371 118.75462747 -6.082809 103.19443625 -5.98092079 87.63423347 C-5.9699425 85.95675789 -5.95896826 84.27928228 -5.94799805 82.60180664 C-5.93981916 81.35281973 -5.93981916 81.35281973 -5.93147504 80.07860076 C-5.88673274 73.18536515 -5.84709679 66.29210591 -5.80832058 59.39883453 C-5.77017735 52.66404453 -5.7282714 45.92928465 -5.68343395 39.19453591 C-5.65698477 35.20967437 -5.63211925 31.22481843 -5.61123848 27.23992348 C-5.59176107 23.54159817 -5.56764635 19.84333314 -5.53982162 16.14506149 C-5.5259479 14.1406987 -5.51701389 12.13630364 -5.50819397 10.13191223 C-5.49840515 8.95197693 -5.48861633 7.77204163 -5.47853088 6.55635071 C-5.47207833 5.52603383 -5.46562578 4.49571695 -5.4589777 3.43417835 C-5.21834385 -0.56544806 -3.56726705 0.00349541 0 0 Z " fill="#090067" transform="translate(1299.3203125,1265.87060546875)"/>
<path d="M0 0 C1.06367294 0.00222061 2.12734589 0.00444122 3.22325134 0.00672913 C5.02500572 0.00684242 5.02500572 0.00684242 6.86315918 0.00695801 C8.17042465 0.01211929 9.47769012 0.01728058 10.8245697 0.02259827 C12.16835477 0.02446253 13.51214052 0.02588639 14.85592651 0.02688599 C18.39873622 0.0307105 21.94150515 0.0405402 25.48429871 0.05158997 C29.09706572 0.06180552 32.7098393 0.06638392 36.32261658 0.07142639 C43.41573225 0.08216254 50.50882019 0.09923816 57.60191345 0.12025452 C61.33892098 17.86565889 64.36816178 35.73230707 67.43532252 53.60235333 C68.19461596 58.02248037 68.95711277 62.4420549 69.71923828 66.86169434 C71.17195525 75.28885674 72.62202039 83.71647305 74.07104069 92.14427179 C76.14276811 104.19318504 78.21841906 116.24142241 80.29422951 128.2896328 C80.60998124 130.12236322 80.92572819 131.95509447 81.24147034 133.78782654 C81.39750343 134.69351139 81.55353652 135.59919625 81.71429789 136.5323261 C82.65631772 142.00106594 83.59723843 147.46999361 84.53728783 152.93907249 C87.65649665 171.08556936 90.78889762 189.22952264 93.96909177 207.36544287 C94.43682977 210.03417875 94.90380062 212.70304756 95.37045002 215.37197399 C95.52131665 216.2348167 95.67218329 217.0976594 95.82762164 217.98664886 C96.12756951 219.70229772 96.42747925 221.41795325 96.72734958 223.13361567 C97.59059474 228.06961957 98.45914834 233.00465146 99.33176184 237.93900728 C99.86406392 240.95587929 100.3915329 243.97358175 100.91770244 246.99152875 C101.16056326 248.37835923 101.40548562 249.76483059 101.6526711 251.15089679 C101.98977364 253.04242171 102.3188607 254.93536985 102.64758301 256.82836914 C102.83309503 257.88146239 103.01860704 258.93455564 103.20974064 260.01956081 C103.64067855 263.42674873 103.73413789 266.68948781 103.60191345 270.12025452 C102.05932737 271.6628406 100.6282761 271.24744023 98.48106384 271.24964905 C97.60668167 271.25280121 96.7322995 271.25595337 95.8314209 271.25920105 C94.40490456 271.2561647 94.40490456 271.2561647 92.9495697 271.25306702 C91.97910202 271.25402374 91.00863434 271.25498047 90.00875854 271.25596619 C87.95167476 271.25664816 85.89458883 271.25479266 83.83750916 271.25062561 C80.68145423 271.24528336 77.52554201 271.25056704 74.36949158 271.25697327 C72.37535064 271.25631237 70.38120979 271.25503098 68.3870697 271.25306702 C67.43808304 271.25509125 66.48909637 271.25711548 65.51135254 271.25920105 C64.63381821 271.25604889 63.75628387 271.25289673 62.85215759 271.24964905 C61.69086082 271.24845566 61.69086082 271.24845566 60.50610352 271.24723816 C58.60191345 271.12025452 58.60191345 271.12025452 56.60191345 270.12025452 C56.00767517 267.89881897 56.00767517 267.89881897 55.53160095 264.98353577 C55.35757751 263.93101624 55.18355408 262.8784967 55.0042572 261.79408264 C54.74322205 260.13022522 54.74322205 260.13022522 54.47691345 258.43275452 C54.29515564 257.34285217 54.11339783 256.25294983 53.9261322 255.13002014 C53.09245113 249.98062914 52.60191345 245.37892772 52.60191345 240.12025452 C35.44191345 240.12025452 18.28191345 240.12025452 0.60191345 240.12025452 C-0.38808655 248.04025452 -1.37808655 255.96025452 -2.39808655 264.12025452 C-2.72808655 266.10025452 -3.05808655 268.08025452 -3.39808655 270.12025452 C-5.75008714 271.29625481 -7.13543055 271.24109992 -9.7559967 271.23377991 C-11.10717087 271.23366661 -11.10717087 271.23366661 -12.48564148 271.23355103 C-13.45963898 271.22838974 -14.43363647 271.22322845 -15.43714905 271.21791077 C-16.43314117 271.21649582 -17.4291333 271.21508087 -18.45530701 271.21362305 C-21.64459708 271.20801388 -24.8338176 271.19545981 -28.02308655 271.18275452 C-30.1819397 271.1777407 -32.34079395 271.17317759 -34.49964905 271.16908264 C-39.79915205 271.15804147 -45.09861433 271.14129439 -50.39808655 271.12025452 C-51.36314052 267.31852943 -51.33900249 264.48992461 -50.6346283 260.64294434 C-50.43921385 259.55024609 -50.2437994 258.45754784 -50.0424633 257.33173752 C-49.81934534 256.13844959 -49.59622738 254.94516167 -49.36634827 253.7157135 C-49.13647783 252.44582203 -48.9066074 251.17593056 -48.66977119 249.86755753 C-48.0338194 246.35551272 -47.38642714 242.8456602 -46.73716354 239.33605552 C-46.04396084 235.57751485 -45.36152182 231.81701987 -44.6778717 228.05673218 C-43.50129703 221.59329648 -42.31818078 215.13108711 -41.13044739 208.66969299 C-39.27127938 198.55546616 -37.42382166 188.43912053 -35.57826233 178.32240295 C-34.95637436 174.91421377 -34.33438137 171.50604377 -33.71232605 168.09788513 C-33.55792317 167.25190667 -33.40352029 166.40592821 -33.24443853 165.53431404 C-32.14438224 159.50819934 -31.04237924 153.48244249 -29.93955994 147.45683289 C-26.04238686 126.16053605 -22.17369929 104.85933123 -18.33854055 83.55177999 C-17.71814326 80.10553914 -17.09716167 76.6594036 -16.47624207 73.21325684 C-14.61838595 62.90073893 -12.76069171 52.58819378 -10.90925598 42.27452087 C-9.85130113 36.38185477 -8.78968382 30.48986024 -7.72523499 24.59836388 C-7.33904385 22.45685089 -6.95426979 20.31508181 -6.57099915 18.1730442 C-6.05454435 15.28727424 -5.53334333 12.40240254 -5.01087952 9.51771545 C-4.86046644 8.67037055 -4.71005337 7.82302565 -4.55508232 6.95000362 C-3.31730945 0.16634989 -3.31730945 0.16634989 0 0 Z M26.60191345 80.12025452 C26.43540283 81.17973801 26.26889221 82.2392215 26.09733582 83.33081055 C24.50959687 93.43307259 22.92148918 103.5352766 21.33304214 113.63742733 C20.51688867 118.8280455 19.70085452 124.01868236 18.88511658 129.20936584 C18.09664306 134.22654122 17.30780589 139.24365931 16.51876831 144.260746 C16.20992399 146.22501609 15.90121806 148.18930795 15.59265137 150.15362167 C14.16357475 159.25082156 12.73327787 168.34760026 11.25621033 177.43714905 C11.06484497 178.61652542 10.87347961 179.79590179 10.67631531 181.01101685 C10.338772 183.08297548 9.99857168 185.15450412 9.654953 187.22546387 C9.44065643 188.53959007 9.44065643 188.53959007 9.22203064 189.88026428 C9.10059692 190.61350418 8.97916321 191.34674408 8.85404968 192.10220337 C8.51926241 194.44282109 8.51926241 194.44282109 8.60191345 198.12025452 C20.48191345 198.12025452 32.36191345 198.12025452 44.60191345 198.12025452 C40.59060985 169.05822708 36.44405026 140.01882559 32.16441345 110.99525452 C32.05082741 110.22492386 31.93724136 109.4545932 31.82021332 108.66091919 C30.41708676 99.14692403 29.01096516 89.63337402 27.60191345 80.12025452 C27.27191345 80.12025452 26.94191345 80.12025452 26.60191345 80.12025452 Z " fill="#090067" transform="translate(406.39808654785156,1265.8797454833984)"/>
<path d="M0 0 C16.54147069 -0.02332889 33.08293606 -0.04097912 49.62441921 -0.05181217 C57.30438727 -0.05697515 64.98434513 -0.06401789 72.66430664 -0.07543945 C79.35577989 -0.08538623 86.04724576 -0.09185341 92.7387262 -0.09408849 C96.28395601 -0.09539561 99.82916468 -0.09848153 103.37438774 -0.10573006 C107.32568645 -0.1137438 111.2769642 -0.11399114 115.22827148 -0.11352539 C116.41222 -0.11712067 117.59616852 -0.12071594 118.81599426 -0.12442017 C119.88596649 -0.1230455 120.95593872 -0.12167084 122.05833435 -0.12025452 C122.99395423 -0.12117631 123.92957411 -0.1220981 124.8935461 -0.12304783 C127 0 127 0 128 1 C128.09813987 2.43740353 128.1279828 3.87956327 128.12939453 5.3203125 C128.13254669 6.23796387 128.13569885 7.15561523 128.13894653 8.10107422 C128.13591019 9.59791748 128.13591019 9.59791748 128.1328125 11.125 C128.13376923 12.14223145 128.13472595 13.15946289 128.13571167 14.20751953 C128.13639361 16.36295636 128.13453835 18.51839522 128.13037109 20.67382812 C128.12502305 23.98572371 128.13031563 27.29748367 128.13671875 30.609375 C128.13605797 32.69791697 128.13477681 34.78645885 128.1328125 36.875 C128.13483673 37.87289551 128.13686096 38.87079102 128.13894653 39.89892578 C128.13421829 41.27540283 128.13421829 41.27540283 128.12939453 42.6796875 C128.12859894 43.49163574 128.12780334 44.30358398 128.12698364 45.14013672 C128 47 128 47 127 48 C124.50507612 48.09502416 122.03793986 48.12557566 119.54272461 48.11352539 C118.76229294 48.11367142 117.98186127 48.11381744 117.17778015 48.1139679 C114.5859402 48.11326858 111.99417122 48.10547536 109.40234375 48.09765625 C107.6101536 48.09579213 105.81796294 48.0943682 104.02577209 48.09336853 C99.29929203 48.08954284 94.57284248 48.07971212 89.84637451 48.06866455 C84.18044414 48.05665719 78.51450359 48.05204843 72.84856415 48.04621124 C64.23235484 48.03650039 55.61621257 48.0173442 47 48 C47 67.47 47 86.94 47 107 C55.64509766 106.98259766 55.64509766 106.98259766 64.46484375 106.96484375 C68.10612091 106.95973698 71.74739368 106.95492321 75.38867188 106.95117188 C81.17408154 106.94518347 86.95947545 106.93808324 92.74487305 106.92456055 C97.4067712 106.91373153 102.06865246 106.90772314 106.73056221 106.90512276 C108.51324288 106.90326853 110.29592259 106.89964797 112.07859612 106.89426994 C114.5666596 106.88705931 117.05465243 106.88600907 119.54272461 106.88647461 C120.28718842 106.88287933 121.03165222 106.87928406 121.79867554 106.87557983 C126.88594784 106.88594784 126.88594784 106.88594784 128 108 C128.09304018 109.47354348 128.11746265 110.95150591 128.11352539 112.42797852 C128.11340454 113.38208618 128.11328369 114.33619385 128.11315918 115.31921387 C128.10804321 116.32891235 128.10292725 117.33861084 128.09765625 118.37890625 C128.09664917 119.30183472 128.09564209 120.22476318 128.09460449 121.17565918 C128.08935494 124.63795201 128.07539381 128.1002272 128.0625 131.5625 C128.041875 139.296875 128.02125 147.03125 128 155 C101.27 155 74.54 155 47 155 C47 177.11 47 199.22 47 222 C73.73 222 100.46 222 128 222 C128.0309375 233.8490625 128.0309375 233.8490625 128.0625 245.9375 C128.071604 248.4343335 128.08070801 250.93116699 128.09008789 253.50366211 C128.0930069 255.46988877 128.09555549 257.43611604 128.09765625 259.40234375 C128.10277222 260.43363403 128.10788818 261.46492432 128.11315918 262.52746582 C128.11334045 263.98908142 128.11334045 263.98908142 128.11352539 265.48022461 C128.115746 266.33071884 128.11796661 267.18121307 128.12025452 268.05747986 C128 270 128 270 127 271 C125.35741299 271.09825968 123.71058667 271.12631963 122.06506348 271.12698364 C120.99653641 271.12980347 119.92800934 271.13262329 118.82710266 271.13552856 C117.64472519 271.13350433 116.46234772 271.1314801 115.24414062 271.12939453 C114.00689743 271.13114685 112.76965424 271.13289917 111.49491882 271.13470459 C108.09210559 271.13836286 104.6893528 271.13748962 101.28654289 271.1343255 C97.73289786 271.13180159 94.17925548 271.13413953 90.62561035 271.13571167 C84.65681492 271.13753327 78.68803184 271.1351273 72.71923828 271.13037109 C65.80905432 271.12492849 58.89889985 271.12669115 51.9887166 271.1321975 C46.06600965 271.13672889 40.14331159 271.13737905 34.22060347 271.13475883 C30.67874639 271.1331962 27.13690319 271.13300191 23.595047 271.13629532 C19.64863937 271.13970828 15.70226504 271.13498386 11.75585938 271.12939453 C9.98229317 271.13243088 9.98229317 271.13243088 8.17289734 271.13552856 C7.10437027 271.13270874 6.0358432 271.12988892 4.93493652 271.12698364 C4.00061546 271.12660662 3.0662944 271.12622959 2.10366058 271.12584114 C0 271 0 271 -1 270 C-1.1001878 267.13124202 -1.13438549 264.28648631 -1.12698364 261.41722107 C-1.12854363 260.50537223 -1.13010362 259.5935234 -1.13171089 258.65404278 C-1.13572636 255.57199882 -1.1325287 252.49000339 -1.12939453 249.40795898 C-1.1307487 247.20673087 -1.13252872 245.00550297 -1.13470459 242.80427551 C-1.13928751 236.79357058 -1.13748313 230.78288271 -1.1343255 224.77217746 C-1.13179396 218.45407995 -1.13414281 212.13598391 -1.13571167 205.81788635 C-1.13765331 194.48004266 -1.13453155 183.14220756 -1.12945233 171.80436558 C-1.12502636 161.61265584 -1.12572414 151.42095756 -1.13037109 141.22924805 C-1.13578375 129.35298031 -1.13767957 117.47671815 -1.13475883 105.60044914 C-1.13322022 99.33152974 -1.13293316 93.06261813 -1.13629532 86.79369926 C-1.14975586 57.84664895 -0.92283168 28.93354915 0 0 Z " fill="#0A0067" transform="translate(702,1266)"/>
<path d="M0 0 C0.99 0.495 0.99 0.495 2 1 C2.60668945 2.85083008 2.60668945 2.85083008 3.11328125 5.26953125 C3.30672119 6.15318359 3.50016113 7.03683594 3.69946289 7.94726562 C3.90176514 8.89279297 4.10406738 9.83832031 4.3125 10.8125 C7.70050141 26.0270406 7.70050141 26.0270406 16 39 C19.86056297 39.75532754 21.52023535 39.28643631 24.8984375 37.26953125 C34.55192239 30.20570918 41.30744777 19.75403888 48 10 C49.55834988 14.01455698 48.42319216 17.63926311 47.5625 21.6875 C46.34811775 27.92522505 45.69234827 33.9550271 45.6875 40.3125 C45.68242432 41.02301514 45.67734863 41.73353027 45.67211914 42.46557617 C45.72079299 46.09857458 45.88490582 48.97309843 48 52 C51.65987912 53.82993956 55.19651534 52.97731924 59 52 C69.04927459 48.0349801 78.2336872 42.2426773 87 36 C87.33 36.66 87.66 37.32 88 38 C86.96777344 40.04370117 86.96777344 40.04370117 85.359375 42.54296875 C84.78316406 43.45240234 84.20695312 44.36183594 83.61328125 45.29882812 C82.99839844 46.25208984 82.38351562 47.20535156 81.75 48.1875 C74.10948975 59.7157225 74.10948975 59.7157225 71 73 C71.39260542 75.36954287 71.39260542 75.36954287 73 77 C81.94022132 81.58472888 93.79303929 78.62903361 103.1875 77 C104.33025391 76.80921875 105.47300781 76.6184375 106.65039062 76.421875 C109.43503174 75.95582628 112.21804145 75.4817577 115 75 C111.80305409 78.32895624 108.60594508 81.12764801 104.8125 83.75 C93.22480339 91.82717839 93.22480339 91.82717839 85 103 C84.74670216 106.14710302 84.74670216 106.14710302 86 109 C95.88960322 118.03645083 111.34361305 120.05158326 124 123 C123.67 123.66 123.34 124.32 123 125 C121.14916992 125.60668945 121.14916992 125.60668945 118.73046875 126.11328125 C117.84681641 126.30664062 116.96316406 126.5 116.05273438 126.69921875 C115.10720703 126.90160156 114.16167969 127.10398437 113.1875 127.3125 C97.22204506 130.36319078 97.22204506 130.36319078 85 140 C84.61431409 145.78528861 88.38021174 149.84961284 92 154 C94.69789753 156.44603632 97.55946392 158.60532079 100.5 160.75 C101.23347656 161.30042969 101.96695312 161.85085937 102.72265625 162.41796875 C106.73384527 165.4102153 110.80810278 168.26730751 115 171 C110.99822509 172.54940516 107.40808696 171.42512355 103.375 170.5625 C96.94038328 169.29907247 90.74566067 168.71708155 84.1875 168.75 C83.42937012 168.75330322 82.67124023 168.75660645 81.89013672 168.76000977 C78.47185445 168.81835937 75.26750322 168.93656063 72 170 C69.51219538 179.32926731 74.41557459 187.29779417 78.9375 195.25 C81.13146132 199.03372924 83.41665264 202.71721728 86 206.25 C88 209 88 209 88 211 C83.69794515 209.49347517 80.12845403 207.21574942 76.375 204.6875 C63.49682831 195.9980107 63.49682831 195.9980107 48.5625 194.4375 C48.046875 194.623125 47.53125 194.80875 47 195 C45.70311575 198.98478143 45.76806584 203.04116967 45.75 207.1875 C45.74605225 207.97398926 45.74210449 208.76047852 45.73803711 209.57080078 C45.80064935 216.04503509 46.66790384 222.19242914 48.02050781 228.51635742 C48.76618599 232.07216968 49.04136099 234.52943043 48 238 C47.67837891 237.53215088 47.35675781 237.06430176 47.02539062 236.58227539 C36.48246516 219.6214079 36.48246516 219.6214079 21 208 C17.86667589 207.34129695 17.86667589 207.34129695 15 209 C7.65468509 216.53709859 6.10375939 228.76267891 3.63085938 238.60351562 C2.88167497 241.4494886 1.9861375 244.22765119 1 247 C-0.83024682 244.25462977 -1.41792264 242.85604342 -2.11328125 239.75390625 C-2.30664062 238.92181641 -2.5 238.08972656 -2.69921875 237.23242188 C-2.90160156 236.35134766 -3.10398437 235.47027344 -3.3125 234.5625 C-6.45096444 219.38971773 -6.45096444 219.38971773 -16 208 C-20.2701049 207.71532634 -22.63237428 209.2564441 -25.8125 211.875 C-34.02717159 219.54202681 -40.52189681 228.87417071 -47 238 C-48.32441116 235.35117769 -47.79223699 234.0849058 -47.22265625 231.1953125 C-47.03840088 230.22456787 -46.85414551 229.25382324 -46.66430664 228.25366211 C-46.46571045 227.22120361 -46.26711426 226.18874512 -46.0625 225.125 C-43.32128374 211.19234999 -43.32128374 211.19234999 -45.125 197.3125 C-46.82106146 194.7625369 -46.82106146 194.7625369 -49.75 194.2421875 C-59.37603135 193.52486305 -68.79021616 200.43886697 -76.53076172 205.52075195 C-79.93793441 207.75743334 -83.11455012 209.6625086 -87 211 C-84.16507547 205.72540484 -81.14390593 200.6208301 -77.9375 195.5625 C-71.27356715 185.04385491 -71.27356715 185.04385491 -70 173 C-71.72226496 169.75150023 -71.72226496 169.75150023 -75 169 C-77.74368315 168.84806015 -80.4427361 168.76176901 -83.1875 168.75 C-83.9810791 168.74605225 -84.7746582 168.74210449 -85.59228516 168.73803711 C-92.53848548 168.80494688 -98.98360169 169.90536402 -105.7421875 171.44140625 C-108.82088982 171.96928926 -110.12107224 171.85726158 -113 171 C-112.55720703 170.67314209 -112.11441406 170.34628418 -111.65820312 170.00952148 C-94.12016349 158.80246575 -94.12016349 158.80246575 -83.4375 142.25 C-84.20209047 137.83236618 -86.09664824 136.94199251 -89.62670898 134.42236328 C-93.48205232 132.11177484 -97.49186925 130.95998683 -101.8125 129.8125 C-103.12492676 129.4419751 -103.12492676 129.4419751 -104.46386719 129.06396484 C-106.97174984 128.35958179 -109.48473211 127.67744827 -112 127 C-113.85431641 126.48373047 -113.85431641 126.48373047 -115.74609375 125.95703125 C-118.16021831 125.28835956 -120.57650444 124.63366627 -123 124 C-120.03368273 122.38255567 -117.25117298 121.46652675 -113.96484375 120.703125 C-98.65411207 117.36072981 -98.65411207 117.36072981 -85 110 C-83.51268332 107.02536663 -83.5686948 105.32721157 -84 102 C-88.80785571 91.64461848 -101.94041474 83.60658461 -111.51806641 78.0847168 C-112.25162354 77.54778198 -112.25162354 77.54778198 -113 77 C-113 76.34 -113 75.68 -113 75 C-111.95042114 75.18175781 -111.95042114 75.18175781 -110.87963867 75.3671875 C-107.65045976 75.9208675 -104.41907576 76.46049271 -101.1875 77 C-100.08728516 77.19078125 -98.98707031 77.3815625 -97.85351562 77.578125 C-84.69851258 79.94855872 -84.69851258 79.94855872 -72 77 C-69.70216571 75.11145946 -69.70216571 75.11145946 -69.625 72 C-70.09830453 60.42770417 -78.95019561 48.56583638 -85.80859375 39.6484375 C-87 38 -87 38 -87 36 C-82.73849895 37.49470559 -79.21443835 39.73987864 -75.5 42.25 C-62.75682663 50.7609169 -62.75682663 50.7609169 -48 53 C-45.15038377 51.10025585 -44.6540087 49.25738292 -44 46 C-43.40841429 37.78228985 -44.59947275 29.88918926 -46 21.8125 C-46.19078125 20.66974609 -46.3815625 19.52699219 -46.578125 18.34960938 C-47.04417372 15.56496826 -47.5182423 12.78195855 -48 10 C-47.34 10 -46.68 10 -46 10 C-44.7824707 11.43359375 -44.7824707 11.43359375 -43.42578125 13.4375 C-42.92643066 14.16428955 -42.42708008 14.8910791 -41.91259766 15.63989258 C-41.38456543 16.41872803 -40.8565332 17.19756348 -40.3125 18 C-32.30949455 30.18570662 -32.30949455 30.18570662 -21 39 C-17.91440699 39.66721536 -17.91440699 39.66721536 -15 39 C-7.06953787 32.24420823 -4.94313384 21.03136559 -2.6875 11.3125 C-2.29208008 9.66991211 -2.29208008 9.66991211 -1.88867188 7.99414062 C-1.24920098 5.33161637 -0.61984171 2.66714903 0 0 Z M-29.875 96.8125 C-37.01442327 105.69825702 -40.42631723 115.49889 -39.9375 126.875 C-38.49169422 139.54610681 -32.48211987 148.8020268 -22.76953125 156.84765625 C-13.6382758 163.42539248 -4.09599762 164.98509473 7 164 C17.55302977 162.16734649 26.4112751 156.67611116 33.2421875 148.50390625 C40.09865476 138.73724955 41.93433588 128.73841697 41 117 C38.45372713 104.95249181 31.9288526 96.14877387 22 89 C4.32002962 78.99620724 -15.94186655 81.94647856 -29.875 96.8125 Z " fill="#090067" transform="translate(1275,16)"/>
<path d="M0 0 C15.51 0 31.02 0 47 0 C48.62052658 4.05131646 49.53546756 7.22373345 50.29003906 11.44961548 C50.40467625 12.08316055 50.51931343 12.71670562 50.63742447 13.36944902 C51.01856816 15.48321558 51.39208252 17.59825691 51.765625 19.71337891 C52.03807413 21.23327741 52.31099473 22.75309146 52.58435059 24.27282715 C53.32466095 28.39626115 54.05838036 32.52084375 54.79093933 36.64566088 C55.56022873 40.9707107 56.33561275 45.29466753 57.11035156 49.6187439 C58.5783947 57.81767672 60.04101448 66.01756725 61.50166702 74.21781957 C63.15684255 83.50871458 64.81782451 92.7985683 66.47940826 102.08831906 C68.50695182 113.42427381 70.53370301 124.7603686 72.55566406 136.09732056 C72.77076126 137.30325745 72.77076126 137.30325745 72.99020386 138.5335567 C73.65922794 142.28464163 74.32803262 146.03576547 74.99645996 149.78695679 C76.31687134 157.19389702 77.64725856 164.59888922 79 172 C82.61540092 154.73381905 85.61433633 137.36290562 88.62280059 119.98348117 C89.33556152 115.86997338 90.05161663 111.75703918 90.76741028 107.64405823 C92.42338947 98.12581539 94.07581764 88.60695805 95.72757721 79.08798218 C97.84077545 66.90986364 99.95471268 54.73187562 102.07373601 42.5547691 C102.92356372 37.67035464 103.77111333 32.78555206 104.61689985 27.90043628 C105.14103569 24.87579658 105.66707165 21.85148962 106.19362831 18.82727051 C106.43752635 17.4241183 106.68062292 16.0208265 106.92286682 14.61738777 C107.25298406 12.70548901 107.58620839 10.7941275 107.91960144 8.88279724 C108.10521731 7.81276175 108.29083319 6.74272627 108.48207378 5.64026546 C109 3 109 3 110 0 C125.51 0 141.02 0 157 0 C158.32554734 2.65109468 157.80003506 3.8878233 157.22549438 6.7835083 C156.92843755 8.3063026 156.92843755 8.3063026 156.62537956 9.85986042 C156.39918497 10.98279593 156.17299038 12.10573145 155.93994141 13.26269531 C155.70665194 14.4480572 155.47336246 15.63341909 155.23300362 16.85470104 C154.58301104 20.15023397 153.92699357 23.44446512 153.26846981 26.73829722 C152.56327535 30.27321958 151.86586873 33.80967838 151.1675415 37.34596252 C149.80340686 44.24738377 148.43218953 51.14737912 147.05844307 58.04689282 C145.46700948 66.04070339 143.8816626 74.03571677 142.29682469 82.03083718 C140.17792108 92.71990876 138.05767774 103.40871234 135.93344116 114.09672546 C131.92383836 134.27339563 127.93780298 154.45453606 123.97596371 174.64063847 C122.10357387 184.17971833 120.22515716 193.71761202 118.34615898 203.25539207 C116.97313389 210.22605221 115.60303868 217.19726497 114.23956299 224.1697998 C112.96468897 230.68913287 111.68113658 237.20671353 110.39156342 243.72315788 C109.92094049 246.10899299 109.45334288 248.49542707 108.98892975 250.88247871 C108.35974298 254.11443671 107.72010191 257.34414604 107.07763672 260.57348633 C106.80366027 262.00122816 106.80366027 262.00122816 106.52414894 263.45781326 C106.35157255 264.31384014 106.17899616 265.16986702 106.00119019 266.05183411 C105.8550421 266.7956474 105.708894 267.5394607 105.55831718 268.30581379 C105.37407251 268.86489524 105.18982784 269.42397669 105 270 C102.59344005 271.20327997 101.08556214 271.12685623 98.3984375 271.12939453 C97.44404785 271.13254669 96.4896582 271.13569885 95.50634766 271.13894653 C94.47300293 271.1369223 93.4396582 271.13489807 92.375 271.1328125 C91.31716309 271.13376923 90.25932617 271.13472595 89.16943359 271.13571167 C86.93001242 271.13639301 84.69058927 271.13454193 82.45117188 271.13037109 C79.01427799 271.12502222 75.5775148 271.13031767 72.140625 271.13671875 C69.96874971 271.13605796 67.7968745 271.13477678 65.625 271.1328125 C64.59165527 271.13483673 63.55831055 271.13686096 62.49365234 271.13894653 C61.5392627 271.13579437 60.58487305 271.13264221 59.6015625 271.12939453 C58.75932129 271.12859894 57.91708008 271.12780334 57.04931641 271.12698364 C55 271 55 271 53 270 C52.41932815 268.22774327 52.41932815 268.22774327 51.94459438 265.86277962 C51.76009242 264.9653728 51.57559045 264.06796599 51.38549751 263.14336503 C51.09176525 261.64735585 51.09176525 261.64735585 50.792099 260.12112427 C50.57875099 259.07039101 50.36540299 258.01965774 50.14558989 256.93708408 C49.42724719 253.3882188 48.72138396 249.83698363 48.01538086 246.28564453 C47.50512664 243.75150654 46.99412808 241.21751832 46.48243713 238.68367004 C45.23450246 232.49658095 43.99589128 226.3076601 42.76043647 220.11806829 C41.32085168 212.90736673 39.87249904 205.69843516 38.4238605 198.48954807 C35.83775252 185.61850079 33.26023528 172.74574782 30.68725586 159.87207031 C28.19264398 147.39051251 25.69118664 134.91035169 23.18237305 122.43164062 C20.45115013 108.84662368 17.72357729 95.26088389 15.00246149 81.6738385 C14.71179668 80.22250914 14.42113104 78.77117995 14.13046455 77.31985092 C13.98746151 76.60578918 13.84445846 75.89172745 13.69712199 75.15602747 C12.69162279 70.13636297 11.68364921 65.11719903 10.67478752 60.09820938 C9.31401987 53.32788105 7.95962429 46.55630293 6.60939598 39.78386497 C6.11354569 37.30151855 5.61574051 34.81956167 5.11581039 32.33803368 C4.43212345 28.94264361 3.75564281 25.54589269 3.08091736 22.14871216 C2.88286513 21.17367993 2.6848129 20.19864769 2.48075908 19.19406903 C1.20784874 12.73145191 0.60320455 6.63525008 0 0 Z " fill="#090067" transform="translate(522,1266)"/>
<path d="M0 0 C1.63569946 0.01353516 1.63569946 0.01353516 3.30444336 0.02734375 C26.0656683 0.51216239 44.64894493 9.82943816 60.2734375 26.05859375 C75.71357383 43.79103701 81.10659794 65.27484634 79.75 88.4375 C77.11357346 109.93107904 66.24478883 129.30970227 49.15234375 142.68798828 C31.15722504 155.99820759 9.97102855 160.46615703 -12.109375 158.0078125 C-25.7303231 155.68018213 -38.50210902 150.15299592 -49.25 141.4375 C-50.49330078 140.45523438 -50.49330078 140.45523438 -51.76171875 139.453125 C-65.85002597 127.6301658 -75.95215302 109.7272166 -78.25 91.4375 C-80.03607496 68.54047898 -76.30216192 46.4395781 -61.0703125 28.44140625 C-60.46960938 27.78011719 -59.86890625 27.11882812 -59.25 26.4375 C-58.60804688 25.70402344 -57.96609375 24.97054687 -57.3046875 24.21484375 C-42.58387938 8.38046896 -21.48241149 -0.21524451 0 0 Z " fill="#090067" transform="translate(686.25,118.5625)"/>
<path d="M0 0 C15.51 0 31.02 0 47 0 C51.22227947 14.27504735 55.29519958 28.58070578 59.2421875 42.93359375 C59.47029366 43.76263844 59.69839981 44.59168312 59.93341827 45.44585037 C62.07201852 53.22018095 64.20602304 60.99576985 66.33691406 68.7722168 C67.5157504 73.07352673 68.6978027 77.37394213 69.88187027 81.67381477 C70.32890427 83.2998387 70.77466065 84.92621444 71.2191124 86.55294609 C71.83300261 88.79972867 72.450935 91.04536167 73.06982422 93.29077148 C73.25159714 93.96012726 73.43337006 94.62948303 73.62065125 95.31912231 C74.31287368 98.41886156 74.31287368 98.41886156 76 101 C76.23279663 100.16015564 76.46559326 99.32031128 76.70544434 98.45501709 C78.93871061 90.39898644 81.17306357 82.34325807 83.40853119 74.28783798 C84.55677293 70.15005612 85.70464565 66.01217275 86.8515625 61.87402344 C91.39729547 45.47394636 95.95135728 29.07614897 100.59375 12.703125 C100.92644897 11.52151794 101.25914795 10.33991089 101.60192871 9.12249756 C101.90538208 8.05759094 102.20883545 6.99268433 102.52148438 5.89550781 C102.78457397 4.96796692 103.04766357 4.04042603 103.31872559 3.08477783 C104 1 104 1 105 0 C106.47354348 -0.09304018 107.95150591 -0.11746265 109.42797852 -0.11352539 C110.36887833 -0.11344986 111.30977814 -0.11337433 112.27919006 -0.11329651 C113.30209641 -0.10813522 114.32500275 -0.10297394 115.37890625 -0.09765625 C116.42070541 -0.0962413 117.46250458 -0.09482635 118.53587341 -0.09336853 C121.87811094 -0.0877508 125.22028257 -0.0751953 128.5625 -0.0625 C130.82226466 -0.05748728 133.08203037 -0.05292398 135.34179688 -0.04882812 C140.89455464 -0.03777561 146.44727053 -0.02062401 152 0 C150.78426454 5.94571475 149.25146202 11.65800462 147.28881836 17.39819336 C147.02291743 18.18816711 146.75701651 18.97814087 146.48305798 19.79205322 C145.60640714 22.3928333 144.72317559 24.991326 143.83984375 27.58984375 C143.21541469 29.4378191 142.59138973 31.28593104 141.96774292 33.13417053 C140.30562698 38.05617167 138.63778661 42.97621478 136.96875381 47.89587402 C135.24954834 52.9665753 133.53562619 58.03906181 131.82104492 63.11132812 C127.88778224 74.74329044 123.94528105 86.37210939 120 98 C119.47228513 99.55560136 118.9445749 101.1112043 118.41687012 102.66680908 C114.00962949 115.65775715 109.59902453 128.6475655 105.16574097 141.62965393 C104.69397583 143.01249861 104.2263643 144.39677233 103.76427937 145.78288174 C103.27842567 147.1923076 102.7651344 148.59279349 102.21600056 149.97879028 C99.86424164 156.18947576 99.59562083 161.78491667 99.67529297 168.37890625 C99.67646118 169.48076767 99.67762939 170.58262909 99.67883301 171.71788025 C99.6859785 175.33295004 99.71414609 178.94753732 99.7421875 182.5625 C99.75032805 185.08072488 99.75698972 187.59895493 99.76223755 190.1171875 C99.7775697 196.05149395 99.80555826 201.98564739 99.84048474 207.91986275 C99.90635632 219.1994954 99.94317765 230.47923665 99.97806168 241.75900269 C99.99207053 245.46902233 100.01364711 249.17894051 100.03634644 252.88891602 C100.04636264 255.14469331 100.05622822 257.40047128 100.06591797 259.65625 C100.07422638 260.69514877 100.08253479 261.73404755 100.09109497 262.8044281 C100.09405579 263.74359573 100.0970166 264.68276337 100.10006714 265.65039062 C100.10729451 266.88142517 100.10729451 266.88142517 100.11466789 268.1373291 C100 270 100 270 99 271 C97.53194708 271.09822744 96.0592254 271.1279837 94.58789062 271.12939453 C93.65021851 271.13254669 92.71254639 271.13569885 91.74645996 271.13894653 C90.72669067 271.1369223 89.70692139 271.13489807 88.65625 271.1328125 C87.09710876 271.13424759 87.09710876 271.13424759 85.50646973 271.13571167 C83.30395446 271.13639363 81.10143721 271.13453827 78.89892578 271.13037109 C75.51460281 271.12502308 72.13041256 271.13031559 68.74609375 271.13671875 C66.61197887 271.13605797 64.47786408 271.13477681 62.34375 271.1328125 C61.32398071 271.13483673 60.30421143 271.13686096 59.25354004 271.13894653 C58.31586792 271.13579437 57.3781958 271.13264221 56.41210938 271.12939453 C55.58239624 271.12859894 54.75268311 271.12780334 53.89782715 271.12698364 C52 271 52 271 51 270 C51.07034952 267.01684024 51.20522851 264.05888857 51.37841797 261.08105469 C54.75463279 195.8394542 50.64202224 141.30345047 26.08883667 80.48782349 C19.31113748 63.67495388 13.73767951 46.52443311 8.30477715 29.23725033 C7.00399578 25.10755941 5.66939049 20.99351954 4.27215576 16.89535522 C3.99233541 16.07270015 3.71251507 15.25004507 3.42421532 14.40246105 C2.89148094 12.84437271 2.35366459 11.28800918 1.80986977 9.73374653 C0.62406981 6.26464998 0 3.71083938 0 0 Z " fill="#090067" transform="translate(1825,1266)"/>
<path d="M0 0 C19.67068476 -0.02254579 39.34135911 -0.04097845 59.01205349 -0.05181217 C68.14484048 -0.05697544 77.2776189 -0.06401872 86.41040039 -0.07543945 C94.36757874 -0.08538535 102.32475088 -0.0918532 110.28193527 -0.09408849 C114.49785986 -0.09539576 118.71376668 -0.09848262 122.92968559 -0.10573006 C126.89322184 -0.11248879 130.85673289 -0.11461726 134.82027435 -0.11310768 C136.27922006 -0.11338408 137.73816657 -0.11539007 139.19710732 -0.11920547 C141.18046595 -0.12414036 143.16383792 -0.12239811 145.14720154 -0.12025452 C146.25980567 -0.12117631 147.3724098 -0.1220981 148.51872921 -0.12304783 C151 0 151 0 152 1 C152.09813987 2.43740353 152.1279828 3.87956327 152.12939453 5.3203125 C152.13254669 6.23796387 152.13569885 7.15561523 152.13894653 8.10107422 C152.13591019 9.59791748 152.13591019 9.59791748 152.1328125 11.125 C152.13376923 12.14223145 152.13472595 13.15946289 152.13571167 14.20751953 C152.13639361 16.36295636 152.13453835 18.51839522 152.13037109 20.67382812 C152.12502305 23.98572371 152.13031563 27.29748367 152.13671875 30.609375 C152.13605797 32.69791697 152.13477681 34.78645885 152.1328125 36.875 C152.13483673 37.87289551 152.13686096 38.87079102 152.13894653 39.89892578 C152.13421829 41.27540283 152.13421829 41.27540283 152.12939453 42.6796875 C152.12859894 43.49163574 152.12780334 44.30358398 152.12698364 45.14013672 C152 47 152 47 151 48 C149.37325222 48.09340434 147.74245949 48.11745171 146.11303711 48.11352539 C145.07203354 48.11344986 144.03102997 48.11337433 142.95848083 48.11329651 C141.8262056 48.10813522 140.69393036 48.10297394 139.52734375 48.09765625 C138.37456436 48.0962413 137.22178497 48.09482635 136.03407288 48.09336853 C132.33518936 48.08775005 128.63636536 48.07519442 124.9375 48.0625 C122.43684983 48.05748738 119.93619871 48.05292406 117.43554688 48.04882812 C111.29034412 48.03777462 105.14517631 48.02101852 99 48 C99.0077306 48.8504305 99.0077306 48.8504305 99.01561737 49.71804142 C99.1844312 68.33279886 99.34520293 86.94762127 99.5 105.5625 C99.50594854 106.27670561 99.51189708 106.99091123 99.51802588 107.72675943 C99.85820383 148.63062858 100.096842 189.53188708 100.0625 230.4375 C100.06164398 231.46477833 100.06078796 232.49205666 100.05990601 233.55046463 C100.048988 245.7003304 100.02970883 257.85016555 100 270 C97.65578767 271.17210616 96.26967765 271.12677084 93.65795898 271.12939453 C92.7604039 271.13254669 91.86284882 271.13569885 90.93809509 271.13894653 C89.48180443 271.13591019 89.48180443 271.13591019 87.99609375 271.1328125 C87.0024733 271.13376923 86.00885284 271.13472595 84.98512268 271.13571167 C82.88274065 271.13639286 80.78035652 271.1345428 78.67797852 271.13037109 C75.44738072 271.12501638 72.21692161 271.13032105 68.98632812 271.13671875 C66.94791636 271.13605807 64.90950468 271.13477711 62.87109375 271.1328125 C61.41176674 271.13584885 61.41176674 271.13584885 59.92295837 271.13894653 C59.02855545 271.13579437 58.13415253 271.13264221 57.21264648 271.12939453 C56.02589577 271.12820114 56.02589577 271.12820114 54.81517029 271.12698364 C53 271 53 271 52 270 C51.90206749 267.14267276 51.87007609 264.30951505 51.87974548 261.45176697 C51.87889106 260.54436392 51.87803663 259.63696087 51.87715632 258.70206076 C51.87549873 255.63721038 51.88102742 252.57241377 51.88647461 249.50756836 C51.88675645 247.32025656 51.88659881 245.13294467 51.8860321 242.94563293 C51.885744 236.98719628 51.89164286 231.02877955 51.89860606 225.07034755 C51.90483741 218.85098161 51.90544322 212.63161528 51.90663147 206.4122467 C51.90939115 195.96680358 51.91564664 185.52136732 51.92456055 175.07592773 C51.933734 164.31518592 51.94081516 153.5544461 51.94506836 142.79370117 C51.94533108 142.13085088 51.94559381 141.46800058 51.94586449 140.78506391 C51.94716949 137.45987074 51.94843096 134.13467756 51.94967639 130.80948436 C51.96014226 103.20631661 51.97848855 75.60316151 52 48 C34.84 48 17.68 48 0 48 C0 32.16 0 16.32 0 0 Z " fill="#090067" transform="translate(20,1266)"/>
<path d="M0 0 C3.84586434 2.75708083 6.26204047 5.7404983 8.56640625 9.83984375 C9.18515625 10.87109375 9.80390625 11.90234375 10.44140625 12.96484375 C13.95166676 22.55384807 11.57836702 31.71046829 8.31640625 40.90234375 C-1.24778566 68.04737841 -3.47257513 98.9298591 4.56640625 126.83984375 C4.85596191 127.92579834 4.85596191 127.92579834 5.15136719 129.03369141 C10.12213922 147.42718038 19.34893966 165.23738369 31.56640625 179.83984375 C32.23542969 180.70738281 32.90445313 181.57492187 33.59375 182.46875 C43.94203679 195.70761969 56.15712326 206.80878816 69.56640625 216.83984375 C77.78924665 223.02644627 84.74784748 228.59400172 87.56640625 238.83984375 C88.7057055 249.39823329 86.93423616 256.91412986 80.31640625 265.15234375 C75.37755213 270.48418196 69.34007296 273.37467814 62.12109375 274.078125 C49.21699543 274.43552714 41.36152381 268.7243402 31.56640625 260.83984375 C30.64730469 260.11410156 29.72820312 259.38835937 28.78125 258.640625 C21.76122312 253.01450274 15.08286872 247.03718079 8.56640625 240.83984375 C7.99986328 240.30198242 7.43332031 239.76412109 6.84960938 239.20996094 C-1.74767575 230.98791643 -9.36202256 222.39906395 -16.43359375 212.83984375 C-16.86124023 212.27297852 -17.28888672 211.70611328 -17.72949219 211.12207031 C-24.05308062 202.73051049 -29.47414167 194.02250498 -34.41503906 184.75097656 C-35.35366141 182.98982226 -36.31076028 181.23854826 -37.26953125 179.48828125 C-62.06785062 132.47246307 -63.87848378 76.02865154 -48.43359375 25.83984375 C-44.33290004 13.26490778 -39.55029785 3.206621 -27.43359375 -3.16015625 C-18.16069977 -6.30285254 -8.33084245 -4.71452469 0 0 Z " fill="#090067" transform="translate(669.43359375,329.16015625)"/>
<path d="M0 0 C0.91765137 -0.00315216 1.83530273 -0.00630432 2.78076172 -0.009552 C4.27760498 -0.00651566 4.27760498 -0.00651566 5.8046875 -0.00341797 C6.82191895 -0.00437469 7.83915039 -0.00533142 8.88720703 -0.00631714 C11.04264386 -0.00699908 13.19808272 -0.00514382 15.35351562 -0.00097656 C18.66541121 0.00437148 21.97717117 -0.0009211 25.2890625 -0.00732422 C27.37760447 -0.00666344 29.46614635 -0.00538228 31.5546875 -0.00341797 C32.55258301 -0.0054422 33.55047852 -0.00746643 34.57861328 -0.009552 C35.49626465 -0.00639984 36.41391602 -0.00324768 37.359375 0 C38.17132324 0.00079559 38.98327148 0.00159119 39.81982422 0.00241089 C41.6796875 0.12939453 41.6796875 0.12939453 42.6796875 1.12939453 C42.7776135 3.97410285 42.80961243 6.79453357 42.79994202 9.6396637 C42.80079644 10.54298319 42.80165087 11.44630269 42.80253118 12.3769955 C42.80418876 15.42802644 42.7986601 18.47900336 42.79321289 21.5300293 C42.79293105 23.707489 42.79308869 25.8849488 42.7936554 28.06240845 C42.7939435 33.9939865 42.78804466 39.92554452 42.78108144 45.85711789 C42.77485008 52.0484566 42.77424427 58.23979572 42.77305603 64.43113708 C42.77011932 75.496533 42.76288919 86.5619206 42.75341331 97.62731271 C42.74146901 111.64925837 42.73528675 125.67120288 42.73001111 139.69315255 C42.71954525 167.1719062 42.70119897 194.65064715 42.6796875 222.12939453 C69.4096875 222.12939453 96.1396875 222.12939453 123.6796875 222.12939453 C123.710625 233.97845703 123.710625 233.97845703 123.7421875 246.06689453 C123.7512915 248.56372803 123.76039551 251.06056152 123.76977539 253.63305664 C123.7726944 255.59928331 123.77524299 257.56551057 123.77734375 259.53173828 C123.78245972 260.56302856 123.78757568 261.59431885 123.79284668 262.65686035 C123.79302795 264.11847595 123.79302795 264.11847595 123.79321289 265.60961914 C123.7954335 266.46011337 123.79765411 267.3106076 123.79994202 268.18687439 C123.6796875 270.12939453 123.6796875 270.12939453 122.6796875 271.12939453 C121.03710049 271.22765421 119.39027417 271.25571416 117.74475098 271.25637817 C116.67622391 271.259198 115.60769684 271.26201782 114.50679016 271.2649231 C113.32441269 271.26289886 112.14203522 271.26087463 110.92382812 271.25878906 C109.68658493 271.26054138 108.44934174 271.2622937 107.17460632 271.26409912 C103.77179309 271.2677574 100.3690403 271.26688416 96.96623039 271.26372004 C93.41258536 271.26119612 89.85894298 271.26353406 86.30529785 271.2651062 C80.33650242 271.2669278 74.36771934 271.26452183 68.39892578 271.25976562 C61.48874182 271.25432302 54.57858735 271.25608568 47.6684041 271.26159203 C41.74569715 271.26612342 35.82299909 271.26677358 29.90029097 271.26415336 C26.35843389 271.26259073 22.81659069 271.26239644 19.2747345 271.26568985 C15.32832687 271.26910281 11.38195254 271.26437839 7.43554688 271.25878906 C5.66198067 271.26182541 5.66198067 271.26182541 3.85258484 271.2649231 C2.78405777 271.26210327 1.7155307 271.25928345 0.61462402 271.25637817 C-0.31969704 271.25600115 -1.2540181 271.25562412 -2.21665192 271.25523567 C-4.3203125 271.12939453 -4.3203125 271.12939453 -5.3203125 270.12939453 C-5.41784063 268.69164555 -5.44586701 267.24912034 -5.44615364 265.80806732 C-5.44876139 264.86965956 -5.45136914 263.9312518 -5.45405591 262.96440744 C-5.45182518 261.92133731 -5.44959446 260.87826718 -5.44729614 259.80358887 C-5.44963613 258.1556522 -5.44963613 258.1556522 -5.45202339 256.47442389 C-5.45603857 252.76239558 -5.45284174 249.05040758 -5.44970703 245.33837891 C-5.45106084 242.68964008 -5.45280424 240.04090411 -5.45501709 237.39216614 C-5.45947548 230.92624377 -5.45849801 224.46033298 -5.45560445 217.99441016 C-5.45335069 212.74177112 -5.45303778 207.48913535 -5.45412827 202.23649597 C-5.4542815 201.49034801 -5.45443473 200.74420005 -5.45459261 199.97544155 C-5.45491232 198.45989581 -5.45523653 196.94435007 -5.4555652 195.42880434 C-5.45842019 181.20066435 -5.45513266 166.97253079 -5.44976483 152.74439186 C-5.44529678 140.5226252 -5.4460727 128.30086805 -5.45068359 116.07910156 C-5.45602901 101.90362533 -5.4581455 87.72815473 -5.45507133 73.55267763 C-5.45475276 72.04254945 -5.45443839 70.53242127 -5.45412827 69.02229309 C-5.45397399 68.27918313 -5.45381971 67.53607317 -5.45366076 66.77044472 C-5.45279551 61.5210493 -5.45425866 56.27165744 -5.45660782 51.02226257 C-5.45940566 44.62940677 -5.4586679 38.23656326 -5.45332707 31.84370887 C-5.45068984 28.57884033 -5.45021913 25.31399667 -5.45297623 22.04912758 C-5.4556846 18.51779758 -5.45231045 14.98652638 -5.44729614 11.4552002 C-5.44952686 10.41213006 -5.45175759 9.36905993 -5.45405591 8.29438162 C-5.45144816 7.35597386 -5.44884041 6.4175661 -5.44615364 5.45072174 C-5.44599129 4.63448538 -5.44582894 3.81824903 -5.44566166 2.97727823 C-5.20043537 -0.63782101 -3.11824209 0.00305543 0 0 Z " fill="#0A0067" transform="translate(869.3203125,1265.87060546875)"/>
<path d="M0 0 C1.75106929 -0.02201402 3.50211378 -0.04608754 5.25312805 -0.07211304 C8.91779392 -0.1138281 12.58006158 -0.11655109 16.24487305 -0.09423828 C19.98492142 -0.07553682 23.71609412 -0.11702278 27.45483398 -0.21728516 C60.04495384 -1.0842614 60.04495384 -1.0842614 67.44067383 5.02685547 C70.39639095 8.24219687 72.4657079 11.66030639 74.2570343 15.62960815 C75.59141111 18.40287625 77.48324227 20.59906225 79.48828125 22.9140625 C82.17578125 26.28482521 82.17578125 26.28482521 82.17578125 28.5390625 C42.57578125 28.5390625 2.97578125 28.5390625 -37.82421875 28.5390625 C-35.94536403 24.78135306 -33.76845902 21.6939437 -31.19921875 18.4140625 C-30.79832031 17.89585937 -30.39742187 17.37765625 -29.984375 16.84375 C-29.13449455 15.74916713 -28.26794467 14.66734971 -27.38627625 13.59820557 C-25.7475933 11.53418995 -25.7475933 11.53418995 -24.4178009 9.04632568 C-18.34368821 -0.61336469 -10.32708673 -0.02937615 0 0 Z " fill="#090068" transform="translate(1097.82421875,362.4609375)"/>
<path d="M0 0 C3.97776325 0.03405828 7.93247157 -0.08090257 11.90795898 -0.20800781 C31.46906476 -0.41694559 31.46906476 -0.41694559 37.8996582 5.36425781 C41.83479389 9.71909581 46.17944336 14.71600057 46.17944336 20.78417969 C18.12944336 20.78417969 -9.92055664 20.78417969 -38.82055664 20.78417969 C-37.50055664 18.47417969 -36.18055664 16.16417969 -34.82055664 13.78417969 C-34.30404541 12.71264648 -33.78753418 11.64111328 -33.25537109 10.53710938 C-25.76891105 -1.70587699 -13.07004275 -0.17086077 0 0 Z " fill="#090067" transform="translate(1404.820556640625,451.2158203125)"/>
<path d="M0 0 C2.97808198 1.30155261 4.67093927 2.49322135 6.55859375 5.1328125 C7.02088379 5.76662842 7.48317383 6.40044434 7.95947266 7.0534668 C8.44722168 7.73707275 8.9349707 8.42067871 9.4375 9.125 C14.33428289 15.84636076 19.44301265 22.32970822 24.81030273 28.68212891 C25.32923096 29.30651855 25.84815918 29.9309082 26.3828125 30.57421875 C26.84059082 31.11651123 27.29836914 31.65880371 27.77001953 32.2175293 C29 34 29 34 31 39 C11.2 39 -8.6 39 -29 39 C-27.15545842 34.38864605 -25.67357918 32.15564184 -22.5 28.5 C-18.8133355 24.19225304 -15.25092623 19.82120441 -11.8125 15.3125 C-11.40016113 14.77214111 -10.98782227 14.23178223 -10.56298828 13.67504883 C-9.3752462 12.11675967 -8.1876213 10.55838121 -7 9 C-4.67328062 5.99482756 -2.33817232 2.99626718 0 0 Z " fill="#090067" transform="translate(1119,314)"/>
<path d="M0 0 C3.84895218 1.28298406 5.24984198 3.60680946 7.5625 6.75 C8.44631081 7.92731144 9.33043515 9.10438756 10.21484375 10.28125 C10.66972168 10.89097656 11.12459961 11.50070312 11.59326172 12.12890625 C13.00459919 14.00611736 14.4370673 15.86488708 15.87890625 17.71875 C16.339021 18.31075195 16.79913574 18.90275391 17.27319336 19.51269531 C18.16489562 20.65868652 19.05761489 21.80388721 19.95141602 22.94824219 C23 26.88863059 23 26.88863059 23 28 C8.48 28 -6.04 28 -21 28 C-17.62597911 22.37663185 -17.62597911 22.37663185 -15.546875 19.765625 C-15.09546143 19.19537598 -14.64404785 18.62512695 -14.17895508 18.03759766 C-13.7073999 17.44769043 -13.23584473 16.8577832 -12.75 16.25 C-11.76935563 15.01316005 -10.7888871 13.77618067 -9.80859375 12.5390625 C-9.33147949 11.93868164 -8.85436523 11.33830078 -8.36279297 10.71972656 C-6.49783765 8.36631466 -4.65366352 5.99705116 -2.8125 3.625 C-2.26207031 2.91601562 -1.71164062 2.20703125 -1.14453125 1.4765625 C-0.76683594 0.98929687 -0.38914062 0.50203125 0 0 Z " fill="#090067" transform="translate(1408,417)"/>
</svg>
